<mxfile host="app.diagrams.net" modified="2024-02-09T20:25:17.176Z" agent="Mozilla/5.0 (Windows NT 10.0; Win64; x64) AppleWebKit/537.36 (KHTML, like Gecko) Chrome/121.0.0.0 Safari/537.36 Edg/121.0.0.0" etag="O2Po1mA66k1yJ_D4jsIj" version="23.1.2" type="device" pages="4">
  <diagram name="Integração" id="-Umqb63jV7gSnzjzx3tE">
    <mxGraphModel dx="2289" dy="691" grid="0" gridSize="10" guides="1" tooltips="1" connect="1" arrows="1" fold="1" page="1" pageScale="1" pageWidth="827" pageHeight="1169" background="#f2eded" math="0" shadow="0">
      <root>
        <mxCell id="0" />
        <mxCell id="1" parent="0" />
        <mxCell id="Tka6qVsd_WH7SS3RhjCj-8" style="edgeStyle=orthogonalEdgeStyle;rounded=0;orthogonalLoop=1;jettySize=auto;html=1;" parent="1" source="Tka6qVsd_WH7SS3RhjCj-1" edge="1">
          <mxGeometry relative="1" as="geometry">
            <mxPoint x="347" y="125" as="targetPoint" />
          </mxGeometry>
        </mxCell>
        <mxCell id="Tka6qVsd_WH7SS3RhjCj-1" value="Motor Risco" style="rounded=0;whiteSpace=wrap;html=1;fillColor=#6a00ff;strokeColor=#3700CC;fontColor=#ffffff;" parent="1" vertex="1">
          <mxGeometry x="48" y="62" width="120" height="60" as="geometry" />
        </mxCell>
        <mxCell id="Tka6qVsd_WH7SS3RhjCj-9" style="edgeStyle=orthogonalEdgeStyle;rounded=0;orthogonalLoop=1;jettySize=auto;html=1;entryX=0.5;entryY=0;entryDx=0;entryDy=0;" parent="1" source="Tka6qVsd_WH7SS3RhjCj-3" target="Tka6qVsd_WH7SS3RhjCj-4" edge="1">
          <mxGeometry relative="1" as="geometry" />
        </mxCell>
        <mxCell id="Tka6qVsd_WH7SS3RhjCj-3" value="Arquivo de Texto" style="swimlane;whiteSpace=wrap;html=1;fillColor=#a0522d;strokeColor=#6D1F00;fontColor=#ffffff;" parent="1" vertex="1">
          <mxGeometry x="241" y="127" width="209" height="71" as="geometry" />
        </mxCell>
        <mxCell id="Tka6qVsd_WH7SS3RhjCj-5" value="Dados de Atulizar o Risco" style="text;html=1;align=center;verticalAlign=middle;resizable=0;points=[];autosize=1;strokeColor=#005700;fillColor=#008a00;fontColor=#ffffff;" parent="Tka6qVsd_WH7SS3RhjCj-3" vertex="1">
          <mxGeometry x="27" y="33" width="155" height="26" as="geometry" />
        </mxCell>
        <mxCell id="Tka6qVsd_WH7SS3RhjCj-4" value="Smart" style="shape=process;whiteSpace=wrap;html=1;backgroundOutline=1;fillColor=#1ba1e2;fontColor=#ffffff;strokeColor=#006EAF;" parent="1" vertex="1">
          <mxGeometry x="536" y="216" width="156" height="60" as="geometry" />
        </mxCell>
        <mxCell id="Tka6qVsd_WH7SS3RhjCj-10" value="Motor envia as informações em formato.txt" style="text;html=1;strokeColor=none;fillColor=none;align=center;verticalAlign=middle;whiteSpace=wrap;rounded=0;" parent="1" vertex="1">
          <mxGeometry x="194" y="60" width="252" height="30" as="geometry" />
        </mxCell>
        <mxCell id="Tka6qVsd_WH7SS3RhjCj-11" value="Smart lê&amp;nbsp; informações em formato.txt" style="text;html=1;strokeColor=none;fillColor=none;align=center;verticalAlign=middle;whiteSpace=wrap;rounded=0;" parent="1" vertex="1">
          <mxGeometry x="477" y="127" width="252" height="30" as="geometry" />
        </mxCell>
        <mxCell id="Tka6qVsd_WH7SS3RhjCj-12" style="edgeStyle=orthogonalEdgeStyle;rounded=0;orthogonalLoop=1;jettySize=auto;html=1;" parent="1" source="Tka6qVsd_WH7SS3RhjCj-13" edge="1">
          <mxGeometry relative="1" as="geometry">
            <mxPoint x="333" y="378" as="targetPoint" />
          </mxGeometry>
        </mxCell>
        <mxCell id="Tka6qVsd_WH7SS3RhjCj-13" value="Motor Risco" style="rounded=0;whiteSpace=wrap;html=1;fillColor=#6a00ff;strokeColor=#3700CC;fontColor=#ffffff;" parent="1" vertex="1">
          <mxGeometry x="34" y="315" width="120" height="60" as="geometry" />
        </mxCell>
        <mxCell id="Tka6qVsd_WH7SS3RhjCj-14" style="edgeStyle=orthogonalEdgeStyle;rounded=0;orthogonalLoop=1;jettySize=auto;html=1;entryX=0.5;entryY=0;entryDx=0;entryDy=0;" parent="1" source="Tka6qVsd_WH7SS3RhjCj-15" target="Tka6qVsd_WH7SS3RhjCj-17" edge="1">
          <mxGeometry relative="1" as="geometry" />
        </mxCell>
        <mxCell id="Tka6qVsd_WH7SS3RhjCj-15" value="Tabela DB2" style="swimlane;whiteSpace=wrap;html=1;fillColor=#e3c800;strokeColor=#B09500;fontColor=#000000;" parent="1" vertex="1">
          <mxGeometry x="227" y="380" width="209" height="71" as="geometry" />
        </mxCell>
        <mxCell id="Tka6qVsd_WH7SS3RhjCj-16" value="Dados de Atulizar o Risco" style="text;html=1;align=center;verticalAlign=middle;resizable=0;points=[];autosize=1;strokeColor=#005700;fillColor=#008a00;fontColor=#ffffff;" parent="Tka6qVsd_WH7SS3RhjCj-15" vertex="1">
          <mxGeometry x="27" y="33" width="155" height="26" as="geometry" />
        </mxCell>
        <mxCell id="Tka6qVsd_WH7SS3RhjCj-24" style="edgeStyle=orthogonalEdgeStyle;rounded=0;orthogonalLoop=1;jettySize=auto;html=1;entryX=1;entryY=0.5;entryDx=0;entryDy=0;" parent="1" source="Tka6qVsd_WH7SS3RhjCj-17" target="Tka6qVsd_WH7SS3RhjCj-15" edge="1">
          <mxGeometry relative="1" as="geometry">
            <Array as="points">
              <mxPoint x="525" y="501" />
              <mxPoint x="525" y="416" />
            </Array>
          </mxGeometry>
        </mxCell>
        <mxCell id="Tka6qVsd_WH7SS3RhjCj-17" value="Smart" style="shape=process;whiteSpace=wrap;html=1;backgroundOutline=1;fillColor=#1ba1e2;fontColor=#ffffff;strokeColor=#006EAF;" parent="1" vertex="1">
          <mxGeometry x="542" y="472" width="136" height="57" as="geometry" />
        </mxCell>
        <mxCell id="Tka6qVsd_WH7SS3RhjCj-18" value="Smart consulta essa tabela no DB2" style="text;html=1;strokeColor=none;fillColor=none;align=center;verticalAlign=middle;whiteSpace=wrap;rounded=0;" parent="1" vertex="1">
          <mxGeometry x="463" y="380" width="252" height="30" as="geometry" />
        </mxCell>
        <mxCell id="Tka6qVsd_WH7SS3RhjCj-19" value="" style="endArrow=none;dashed=1;html=1;dashPattern=1 3;strokeWidth=2;rounded=0;" parent="1" edge="1">
          <mxGeometry width="50" height="50" relative="1" as="geometry">
            <mxPoint y="298" as="sourcePoint" />
            <mxPoint x="823" y="305" as="targetPoint" />
          </mxGeometry>
        </mxCell>
        <mxCell id="Tka6qVsd_WH7SS3RhjCj-21" value="Neste cenário a manutenção das informações fica difícil além de exigir uma formatação especifica." style="text;html=1;strokeColor=#6D1F00;fillColor=#a0522d;align=center;verticalAlign=middle;whiteSpace=wrap;rounded=0;fontColor=#ffffff;" parent="1" vertex="1">
          <mxGeometry x="24" y="257" width="472" height="30" as="geometry" />
        </mxCell>
        <mxCell id="Tka6qVsd_WH7SS3RhjCj-22" value="Neste cenário facilita a gestão dos dados pois vai usar os recursos do banco de dados.&lt;br&gt;Como também colocar um Flag de lido e armazenar numa tabela histórico de atualizações de risco." style="text;html=1;strokeColor=#B09500;fillColor=#e3c800;align=center;verticalAlign=middle;whiteSpace=wrap;rounded=0;fontColor=#000000;" parent="1" vertex="1">
          <mxGeometry x="8" y="541" width="472" height="51" as="geometry" />
        </mxCell>
        <mxCell id="Tka6qVsd_WH7SS3RhjCj-23" value="Motor popula uma tabela do DB2" style="text;html=1;strokeColor=none;fillColor=none;align=center;verticalAlign=middle;whiteSpace=wrap;rounded=0;" parent="1" vertex="1">
          <mxGeometry x="162" y="312" width="252" height="30" as="geometry" />
        </mxCell>
        <mxCell id="JxsfgIQTw-GRDU8uC8Xm-6" style="edgeStyle=orthogonalEdgeStyle;rounded=0;orthogonalLoop=1;jettySize=auto;html=1;" edge="1" parent="1" source="JxsfgIQTw-GRDU8uC8Xm-4">
          <mxGeometry relative="1" as="geometry">
            <mxPoint x="291" y="459" as="targetPoint" />
          </mxGeometry>
        </mxCell>
        <mxCell id="JxsfgIQTw-GRDU8uC8Xm-4" value="SIAS" style="shape=process;whiteSpace=wrap;html=1;backgroundOutline=1;fillColor=#1ba1e2;fontColor=#ffffff;strokeColor=#006EAF;" vertex="1" parent="1">
          <mxGeometry x="6" y="472" width="136" height="57" as="geometry" />
        </mxCell>
        <mxCell id="JxsfgIQTw-GRDU8uC8Xm-5" style="edgeStyle=orthogonalEdgeStyle;rounded=0;orthogonalLoop=1;jettySize=auto;html=1;entryX=0.412;entryY=0.035;entryDx=0;entryDy=0;entryPerimeter=0;" edge="1" parent="1" source="Tka6qVsd_WH7SS3RhjCj-15" target="JxsfgIQTw-GRDU8uC8Xm-4">
          <mxGeometry relative="1" as="geometry" />
        </mxCell>
      </root>
    </mxGraphModel>
  </diagram>
  <diagram id="QzZzyuFtGljUCu014r5X" name="R1-Lista Restritiva">
    <mxGraphModel dx="2289" dy="691" grid="1" gridSize="10" guides="1" tooltips="1" connect="1" arrows="1" fold="1" page="1" pageScale="1" pageWidth="827" pageHeight="1169" math="0" shadow="0">
      <root>
        <mxCell id="0" />
        <mxCell id="1" parent="0" />
        <mxCell id="ebV7_po07LK992inz8bV-1" value="&lt;font style=&quot;font-size: 18px;&quot;&gt;R1 -&amp;gt; Listas Restirivas&lt;/font&gt;" style="text;html=1;strokeColor=#3700CC;fillColor=#6a00ff;align=center;verticalAlign=middle;whiteSpace=wrap;rounded=0;fontColor=#ffffff;" vertex="1" parent="1">
          <mxGeometry x="49" y="30" width="230" height="30" as="geometry" />
        </mxCell>
        <mxCell id="ebV7_po07LK992inz8bV-2" value="Lista-01&lt;br&gt;Alto&lt;br&gt;50" style="whiteSpace=wrap;html=1;aspect=fixed;" vertex="1" parent="1">
          <mxGeometry x="49" y="130" width="50" height="50" as="geometry" />
        </mxCell>
        <mxCell id="ebV7_po07LK992inz8bV-3" value="Lista-02&lt;br style=&quot;border-color: var(--border-color);&quot;&gt;Alto&lt;br style=&quot;border-color: var(--border-color);&quot;&gt;50" style="whiteSpace=wrap;html=1;aspect=fixed;" vertex="1" parent="1">
          <mxGeometry x="119" y="130" width="50" height="50" as="geometry" />
        </mxCell>
        <mxCell id="ebV7_po07LK992inz8bV-4" value="Lista-03&lt;br style=&quot;border-color: var(--border-color);&quot;&gt;Alto&lt;br style=&quot;border-color: var(--border-color);&quot;&gt;50" style="whiteSpace=wrap;html=1;aspect=fixed;" vertex="1" parent="1">
          <mxGeometry x="199" y="130" width="50" height="50" as="geometry" />
        </mxCell>
        <mxCell id="ebV7_po07LK992inz8bV-5" value="Lista-04&lt;br style=&quot;border-color: var(--border-color);&quot;&gt;Alto&lt;br style=&quot;border-color: var(--border-color);&quot;&gt;50" style="whiteSpace=wrap;html=1;aspect=fixed;" vertex="1" parent="1">
          <mxGeometry x="279" y="130" width="50" height="50" as="geometry" />
        </mxCell>
        <mxCell id="ebV7_po07LK992inz8bV-6" value="Lista-05&lt;br style=&quot;border-color: var(--border-color);&quot;&gt;Alto&lt;br style=&quot;border-color: var(--border-color);&quot;&gt;50" style="whiteSpace=wrap;html=1;aspect=fixed;" vertex="1" parent="1">
          <mxGeometry x="353" y="130" width="50" height="50" as="geometry" />
        </mxCell>
        <mxCell id="ebV7_po07LK992inz8bV-7" value="Lista-06&lt;br style=&quot;border-color: var(--border-color);&quot;&gt;Alto&lt;br style=&quot;border-color: var(--border-color);&quot;&gt;50" style="whiteSpace=wrap;html=1;aspect=fixed;" vertex="1" parent="1">
          <mxGeometry x="429" y="130" width="50" height="50" as="geometry" />
        </mxCell>
        <mxCell id="ebV7_po07LK992inz8bV-8" value="Lista-07&lt;br style=&quot;border-color: var(--border-color);&quot;&gt;Alto&lt;br style=&quot;border-color: var(--border-color);&quot;&gt;50" style="whiteSpace=wrap;html=1;aspect=fixed;" vertex="1" parent="1">
          <mxGeometry x="499" y="130" width="50" height="50" as="geometry" />
        </mxCell>
        <mxCell id="ebV7_po07LK992inz8bV-9" value="Lista-08&lt;br style=&quot;border-color: var(--border-color);&quot;&gt;Alto&lt;br style=&quot;border-color: var(--border-color);&quot;&gt;50" style="whiteSpace=wrap;html=1;aspect=fixed;" vertex="1" parent="1">
          <mxGeometry x="569" y="130" width="50" height="50" as="geometry" />
        </mxCell>
        <mxCell id="ebV7_po07LK992inz8bV-10" value="Lista-09&lt;br style=&quot;border-color: var(--border-color);&quot;&gt;Alto&lt;br style=&quot;border-color: var(--border-color);&quot;&gt;50" style="whiteSpace=wrap;html=1;aspect=fixed;" vertex="1" parent="1">
          <mxGeometry x="649" y="130" width="50" height="50" as="geometry" />
        </mxCell>
        <mxCell id="ebV7_po07LK992inz8bV-11" value="Lista-10&lt;br style=&quot;border-color: var(--border-color);&quot;&gt;Alto&lt;br style=&quot;border-color: var(--border-color);&quot;&gt;50" style="whiteSpace=wrap;html=1;aspect=fixed;" vertex="1" parent="1">
          <mxGeometry x="729" y="130" width="50" height="50" as="geometry" />
        </mxCell>
        <mxCell id="ebV7_po07LK992inz8bV-12" value="Lista-11&lt;br style=&quot;border-color: var(--border-color);&quot;&gt;Alto&lt;br style=&quot;border-color: var(--border-color);&quot;&gt;50" style="whiteSpace=wrap;html=1;aspect=fixed;" vertex="1" parent="1">
          <mxGeometry x="49" y="210" width="50" height="50" as="geometry" />
        </mxCell>
        <mxCell id="ebV7_po07LK992inz8bV-13" value="Lista-12&lt;br style=&quot;border-color: var(--border-color);&quot;&gt;Alto&lt;br style=&quot;border-color: var(--border-color);&quot;&gt;50" style="whiteSpace=wrap;html=1;aspect=fixed;" vertex="1" parent="1">
          <mxGeometry x="119" y="210" width="50" height="50" as="geometry" />
        </mxCell>
        <mxCell id="ebV7_po07LK992inz8bV-14" value="Lista-13&lt;br style=&quot;border-color: var(--border-color);&quot;&gt;Alto&lt;br style=&quot;border-color: var(--border-color);&quot;&gt;50" style="whiteSpace=wrap;html=1;aspect=fixed;" vertex="1" parent="1">
          <mxGeometry x="199" y="210" width="50" height="50" as="geometry" />
        </mxCell>
        <mxCell id="ebV7_po07LK992inz8bV-15" value="Lista-14&lt;br style=&quot;border-color: var(--border-color);&quot;&gt;Alto&lt;br style=&quot;border-color: var(--border-color);&quot;&gt;50" style="whiteSpace=wrap;html=1;aspect=fixed;" vertex="1" parent="1">
          <mxGeometry x="279" y="210" width="50" height="50" as="geometry" />
        </mxCell>
        <mxCell id="ebV7_po07LK992inz8bV-16" value="Lista-15&lt;br style=&quot;border-color: var(--border-color);&quot;&gt;Alto&lt;br style=&quot;border-color: var(--border-color);&quot;&gt;50" style="whiteSpace=wrap;html=1;aspect=fixed;" vertex="1" parent="1">
          <mxGeometry x="353" y="210" width="50" height="50" as="geometry" />
        </mxCell>
        <mxCell id="ebV7_po07LK992inz8bV-17" value="Lista-16&lt;br&gt;Alto&lt;br&gt;50" style="whiteSpace=wrap;html=1;aspect=fixed;" vertex="1" parent="1">
          <mxGeometry x="429" y="210" width="50" height="50" as="geometry" />
        </mxCell>
        <mxCell id="ebV7_po07LK992inz8bV-18" value="Lista-17&lt;br&gt;Bloqueio&lt;br&gt;Max" style="whiteSpace=wrap;html=1;aspect=fixed;" vertex="1" parent="1">
          <mxGeometry x="50" y="320" width="50" height="50" as="geometry" />
        </mxCell>
        <mxCell id="ebV7_po07LK992inz8bV-19" value="Lista-18&lt;br&gt;Critico&lt;br&gt;60" style="whiteSpace=wrap;html=1;aspect=fixed;" vertex="1" parent="1">
          <mxGeometry x="49" y="440" width="50" height="50" as="geometry" />
        </mxCell>
        <mxCell id="ebV7_po07LK992inz8bV-20" value="Lista-19&lt;br style=&quot;border-color: var(--border-color);&quot;&gt;Critico&lt;br style=&quot;border-color: var(--border-color);&quot;&gt;60" style="whiteSpace=wrap;html=1;aspect=fixed;" vertex="1" parent="1">
          <mxGeometry x="129" y="440" width="50" height="50" as="geometry" />
        </mxCell>
        <mxCell id="ebV7_po07LK992inz8bV-21" value="Lista-20&lt;br style=&quot;border-color: var(--border-color);&quot;&gt;Critico&lt;br style=&quot;border-color: var(--border-color);&quot;&gt;60" style="whiteSpace=wrap;html=1;aspect=fixed;" vertex="1" parent="1">
          <mxGeometry x="209" y="440" width="50" height="50" as="geometry" />
        </mxCell>
        <mxCell id="ebV7_po07LK992inz8bV-22" value="Lista-21&lt;br style=&quot;border-color: var(--border-color);&quot;&gt;Critico&lt;br style=&quot;border-color: var(--border-color);&quot;&gt;60" style="whiteSpace=wrap;html=1;aspect=fixed;" vertex="1" parent="1">
          <mxGeometry x="290" y="440" width="50" height="50" as="geometry" />
        </mxCell>
        <mxCell id="ebV7_po07LK992inz8bV-23" value="Lista-22&lt;br style=&quot;border-color: var(--border-color);&quot;&gt;Critico&lt;br style=&quot;border-color: var(--border-color);&quot;&gt;60" style="whiteSpace=wrap;html=1;aspect=fixed;" vertex="1" parent="1">
          <mxGeometry x="360" y="440" width="50" height="50" as="geometry" />
        </mxCell>
        <mxCell id="ebV7_po07LK992inz8bV-24" value="Lista-23&lt;br style=&quot;border-color: var(--border-color);&quot;&gt;Critico&lt;br style=&quot;border-color: var(--border-color);&quot;&gt;60" style="whiteSpace=wrap;html=1;aspect=fixed;" vertex="1" parent="1">
          <mxGeometry x="440" y="440" width="50" height="50" as="geometry" />
        </mxCell>
        <mxCell id="ebV7_po07LK992inz8bV-25" value="Lista-24&lt;br style=&quot;border-color: var(--border-color);&quot;&gt;Critico&lt;br style=&quot;border-color: var(--border-color);&quot;&gt;60" style="whiteSpace=wrap;html=1;aspect=fixed;" vertex="1" parent="1">
          <mxGeometry x="520" y="440" width="50" height="50" as="geometry" />
        </mxCell>
        <mxCell id="ebV7_po07LK992inz8bV-26" value="Lista-25&lt;br style=&quot;border-color: var(--border-color);&quot;&gt;Critico&lt;br style=&quot;border-color: var(--border-color);&quot;&gt;60" style="whiteSpace=wrap;html=1;aspect=fixed;" vertex="1" parent="1">
          <mxGeometry x="594" y="440" width="50" height="50" as="geometry" />
        </mxCell>
        <mxCell id="ebV7_po07LK992inz8bV-27" value="Lista-26&lt;br style=&quot;border-color: var(--border-color);&quot;&gt;Critico&lt;br style=&quot;border-color: var(--border-color);&quot;&gt;60" style="whiteSpace=wrap;html=1;aspect=fixed;" vertex="1" parent="1">
          <mxGeometry x="670" y="440" width="50" height="50" as="geometry" />
        </mxCell>
        <mxCell id="ebV7_po07LK992inz8bV-28" value="Lista-27&lt;br style=&quot;border-color: var(--border-color);&quot;&gt;Critico&lt;br style=&quot;border-color: var(--border-color);&quot;&gt;60" style="whiteSpace=wrap;html=1;aspect=fixed;" vertex="1" parent="1">
          <mxGeometry x="740" y="440" width="50" height="50" as="geometry" />
        </mxCell>
        <mxCell id="ebV7_po07LK992inz8bV-29" value="Lista-28&lt;br style=&quot;border-color: var(--border-color);&quot;&gt;Critico&lt;br style=&quot;border-color: var(--border-color);&quot;&gt;60" style="whiteSpace=wrap;html=1;aspect=fixed;" vertex="1" parent="1">
          <mxGeometry x="810" y="440" width="50" height="50" as="geometry" />
        </mxCell>
        <mxCell id="ebV7_po07LK992inz8bV-30" value="Lista-34&lt;br style=&quot;border-color: var(--border-color);&quot;&gt;Medio&lt;br style=&quot;border-color: var(--border-color);&quot;&gt;30" style="whiteSpace=wrap;html=1;aspect=fixed;" vertex="1" parent="1">
          <mxGeometry x="439" y="560" width="50" height="50" as="geometry" />
        </mxCell>
        <mxCell id="ebV7_po07LK992inz8bV-31" value="Lista-35&lt;br style=&quot;border-color: var(--border-color);&quot;&gt;Medio&lt;br style=&quot;border-color: var(--border-color);&quot;&gt;30" style="whiteSpace=wrap;html=1;aspect=fixed;" vertex="1" parent="1">
          <mxGeometry x="519" y="560" width="50" height="50" as="geometry" />
        </mxCell>
        <mxCell id="ebV7_po07LK992inz8bV-32" value="Lista-29&lt;br style=&quot;border-color: var(--border-color);&quot;&gt;Medio&lt;br style=&quot;border-color: var(--border-color);&quot;&gt;30" style="whiteSpace=wrap;html=1;aspect=fixed;" vertex="1" parent="1">
          <mxGeometry x="50" y="559.5" width="50" height="50" as="geometry" />
        </mxCell>
        <mxCell id="ebV7_po07LK992inz8bV-33" value="Lista-30&lt;br style=&quot;border-color: var(--border-color);&quot;&gt;Medio&lt;br style=&quot;border-color: var(--border-color);&quot;&gt;30" style="whiteSpace=wrap;html=1;aspect=fixed;" vertex="1" parent="1">
          <mxGeometry x="120" y="559.5" width="50" height="50" as="geometry" />
        </mxCell>
        <mxCell id="ebV7_po07LK992inz8bV-34" value="Lista-31&lt;br style=&quot;border-color: var(--border-color);&quot;&gt;Medio&lt;br style=&quot;border-color: var(--border-color);&quot;&gt;30" style="whiteSpace=wrap;html=1;aspect=fixed;" vertex="1" parent="1">
          <mxGeometry x="200" y="559.5" width="50" height="50" as="geometry" />
        </mxCell>
        <mxCell id="ebV7_po07LK992inz8bV-35" value="Lista-32&lt;br style=&quot;border-color: var(--border-color);&quot;&gt;Medio&lt;br style=&quot;border-color: var(--border-color);&quot;&gt;30" style="whiteSpace=wrap;html=1;aspect=fixed;" vertex="1" parent="1">
          <mxGeometry x="280" y="559.5" width="50" height="50" as="geometry" />
        </mxCell>
        <mxCell id="ebV7_po07LK992inz8bV-36" value="Lista-33&lt;br style=&quot;border-color: var(--border-color);&quot;&gt;Medio&lt;br style=&quot;border-color: var(--border-color);&quot;&gt;30" style="whiteSpace=wrap;html=1;aspect=fixed;" vertex="1" parent="1">
          <mxGeometry x="354" y="559.5" width="50" height="50" as="geometry" />
        </mxCell>
        <mxCell id="ebV7_po07LK992inz8bV-37" value="&lt;font style=&quot;font-size: 14px;&quot;&gt;Listas com Classificação Alto Pontuação 50&lt;/font&gt;" style="text;html=1;strokeColor=#B20000;fillColor=#e51400;align=center;verticalAlign=middle;whiteSpace=wrap;rounded=0;fontColor=#ffffff;" vertex="1" parent="1">
          <mxGeometry x="50" y="80" width="290" height="30" as="geometry" />
        </mxCell>
        <mxCell id="ebV7_po07LK992inz8bV-38" value="&lt;font style=&quot;font-size: 14px;&quot;&gt;Listas com Classificação Critico Pontuação 60&lt;/font&gt;" style="text;html=1;strokeColor=#6F0000;fillColor=#a20025;align=center;verticalAlign=middle;whiteSpace=wrap;rounded=0;fontColor=#ffffff;" vertex="1" parent="1">
          <mxGeometry x="49" y="390" width="290" height="30" as="geometry" />
        </mxCell>
        <mxCell id="ebV7_po07LK992inz8bV-39" value="&lt;font style=&quot;font-size: 14px;&quot;&gt;Listas com Classificação Medio Pontuação 30&lt;/font&gt;" style="text;html=1;strokeColor=#B09500;fillColor=#e3c800;align=center;verticalAlign=middle;whiteSpace=wrap;rounded=0;fontColor=#000000;" vertex="1" parent="1">
          <mxGeometry x="50" y="510" width="290" height="30" as="geometry" />
        </mxCell>
        <mxCell id="ebV7_po07LK992inz8bV-40" value="&lt;font style=&quot;font-size: 14px;&quot;&gt;Lista com Classificação Block Pontuação Max&lt;/font&gt;" style="text;html=1;strokeColor=#B20000;fillColor=#000000;align=center;verticalAlign=middle;whiteSpace=wrap;rounded=0;fontColor=#ffffff;" vertex="1" parent="1">
          <mxGeometry x="49" y="280" width="290" height="30" as="geometry" />
        </mxCell>
        <mxCell id="ebV7_po07LK992inz8bV-42" value="" style="endArrow=none;dashed=1;html=1;dashPattern=1 3;strokeWidth=2;rounded=0;" edge="1" parent="1">
          <mxGeometry width="50" height="50" relative="1" as="geometry">
            <mxPoint x="20" y="650" as="sourcePoint" />
            <mxPoint x="1150" y="650" as="targetPoint" />
          </mxGeometry>
        </mxCell>
        <mxCell id="ebV7_po07LK992inz8bV-43" value="&lt;font style=&quot;font-size: 18px;&quot;&gt;Como deveria ser&lt;/font&gt;" style="text;html=1;strokeColor=#3700CC;fillColor=#6a00ff;align=center;verticalAlign=middle;whiteSpace=wrap;rounded=0;fontColor=#ffffff;" vertex="1" parent="1">
          <mxGeometry x="310" y="660" width="511" height="30" as="geometry" />
        </mxCell>
        <mxCell id="ebV7_po07LK992inz8bV-44" value="&lt;font style=&quot;font-size: 18px;&quot;&gt;R1 -&amp;gt; Listas Restirivas Ordenadas por Criticidade&lt;/font&gt;" style="text;html=1;strokeColor=#3700CC;fillColor=#6a00ff;align=center;verticalAlign=middle;whiteSpace=wrap;rounded=0;fontColor=#ffffff;" vertex="1" parent="1">
          <mxGeometry x="29" y="710" width="451" height="30" as="geometry" />
        </mxCell>
        <mxCell id="ebV7_po07LK992inz8bV-62" value="Lista-01(17)&lt;br&gt;Bloqueio&lt;br&gt;Max" style="whiteSpace=wrap;html=1;aspect=fixed;" vertex="1" parent="1">
          <mxGeometry x="39" y="790" width="75" height="75" as="geometry" />
        </mxCell>
        <mxCell id="ebV7_po07LK992inz8bV-63" value="&lt;font style=&quot;font-size: 14px;&quot;&gt;Lista com Classificação Block Pontuação Max&lt;/font&gt;" style="text;html=1;strokeColor=#B20000;fillColor=#000000;align=center;verticalAlign=middle;whiteSpace=wrap;rounded=0;fontColor=#ffffff;" vertex="1" parent="1">
          <mxGeometry x="39" y="750" width="290" height="30" as="geometry" />
        </mxCell>
        <mxCell id="ebV7_po07LK992inz8bV-64" value="Lista-01(18)&lt;br&gt;Critico&lt;br&gt;60" style="whiteSpace=wrap;html=1;aspect=fixed;" vertex="1" parent="1">
          <mxGeometry x="2" y="940" width="70" height="70" as="geometry" />
        </mxCell>
        <mxCell id="ebV7_po07LK992inz8bV-65" value="Lista-02(19)&lt;br style=&quot;border-color: var(--border-color);&quot;&gt;Critico&lt;br style=&quot;border-color: var(--border-color);&quot;&gt;60" style="whiteSpace=wrap;html=1;aspect=fixed;" vertex="1" parent="1">
          <mxGeometry x="90" y="940" width="71" height="71" as="geometry" />
        </mxCell>
        <mxCell id="ebV7_po07LK992inz8bV-66" value="Lista-03(20)&lt;br style=&quot;border-color: var(--border-color);&quot;&gt;Critico&lt;br style=&quot;border-color: var(--border-color);&quot;&gt;60" style="whiteSpace=wrap;html=1;aspect=fixed;" vertex="1" parent="1">
          <mxGeometry x="180" y="938" width="72" height="72" as="geometry" />
        </mxCell>
        <mxCell id="ebV7_po07LK992inz8bV-67" value="Lista-04(21)&lt;br style=&quot;border-color: var(--border-color);&quot;&gt;Critico&lt;br style=&quot;border-color: var(--border-color);&quot;&gt;60" style="whiteSpace=wrap;html=1;aspect=fixed;" vertex="1" parent="1">
          <mxGeometry x="270" y="941" width="69" height="69" as="geometry" />
        </mxCell>
        <mxCell id="ebV7_po07LK992inz8bV-68" value="Lista-05(22)&lt;br style=&quot;border-color: var(--border-color);&quot;&gt;Critico&lt;br style=&quot;border-color: var(--border-color);&quot;&gt;60" style="whiteSpace=wrap;html=1;aspect=fixed;" vertex="1" parent="1">
          <mxGeometry x="357" y="940" width="70" height="70" as="geometry" />
        </mxCell>
        <mxCell id="ebV7_po07LK992inz8bV-69" value="Lista-06(23)&lt;br style=&quot;border-color: var(--border-color);&quot;&gt;Critico&lt;br style=&quot;border-color: var(--border-color);&quot;&gt;60" style="whiteSpace=wrap;html=1;aspect=fixed;" vertex="1" parent="1">
          <mxGeometry x="450" y="941" width="71" height="71" as="geometry" />
        </mxCell>
        <mxCell id="ebV7_po07LK992inz8bV-70" value="Lista-07(24)&lt;br style=&quot;border-color: var(--border-color);&quot;&gt;Critico&lt;br style=&quot;border-color: var(--border-color);&quot;&gt;60" style="whiteSpace=wrap;html=1;aspect=fixed;" vertex="1" parent="1">
          <mxGeometry x="539.5" y="942.5" width="69.5" height="69.5" as="geometry" />
        </mxCell>
        <mxCell id="ebV7_po07LK992inz8bV-71" value="Lista-08(25)&lt;br style=&quot;border-color: var(--border-color);&quot;&gt;Critico&lt;br style=&quot;border-color: var(--border-color);&quot;&gt;60" style="whiteSpace=wrap;html=1;aspect=fixed;" vertex="1" parent="1">
          <mxGeometry x="630" y="940" width="70" height="70" as="geometry" />
        </mxCell>
        <mxCell id="ebV7_po07LK992inz8bV-72" value="Lista-09(26)&lt;br style=&quot;border-color: var(--border-color);&quot;&gt;Critico&lt;br style=&quot;border-color: var(--border-color);&quot;&gt;60" style="whiteSpace=wrap;html=1;aspect=fixed;" vertex="1" parent="1">
          <mxGeometry x="716" y="940" width="71" height="71" as="geometry" />
        </mxCell>
        <mxCell id="ebV7_po07LK992inz8bV-73" value="Lista-10(27)&lt;br style=&quot;border-color: var(--border-color);&quot;&gt;Critico&lt;br style=&quot;border-color: var(--border-color);&quot;&gt;60" style="whiteSpace=wrap;html=1;aspect=fixed;" vertex="1" parent="1">
          <mxGeometry x="810" y="942.5" width="70" height="70" as="geometry" />
        </mxCell>
        <mxCell id="ebV7_po07LK992inz8bV-74" value="Lista-11(28)&lt;br style=&quot;border-color: var(--border-color);&quot;&gt;Critico&lt;br style=&quot;border-color: var(--border-color);&quot;&gt;60" style="whiteSpace=wrap;html=1;aspect=fixed;" vertex="1" parent="1">
          <mxGeometry x="900" y="940" width="70" height="70" as="geometry" />
        </mxCell>
        <mxCell id="ebV7_po07LK992inz8bV-75" value="&lt;font style=&quot;font-size: 14px;&quot;&gt;Listas com Classificação Critico Pontuação 60&lt;/font&gt;" style="text;html=1;strokeColor=#6F0000;fillColor=#a20025;align=center;verticalAlign=middle;whiteSpace=wrap;rounded=0;fontColor=#ffffff;" vertex="1" parent="1">
          <mxGeometry y="900" width="290" height="30" as="geometry" />
        </mxCell>
        <mxCell id="ebV7_po07LK992inz8bV-76" value="Lista-01&lt;br&gt;Alto&lt;br&gt;50" style="whiteSpace=wrap;html=1;aspect=fixed;" vertex="1" parent="1">
          <mxGeometry x="2" y="1100" width="50" height="50" as="geometry" />
        </mxCell>
        <mxCell id="ebV7_po07LK992inz8bV-77" value="Lista-02&lt;br style=&quot;border-color: var(--border-color);&quot;&gt;Alto&lt;br style=&quot;border-color: var(--border-color);&quot;&gt;50" style="whiteSpace=wrap;html=1;aspect=fixed;" vertex="1" parent="1">
          <mxGeometry x="72" y="1100" width="50" height="50" as="geometry" />
        </mxCell>
        <mxCell id="ebV7_po07LK992inz8bV-78" value="Lista-03&lt;br style=&quot;border-color: var(--border-color);&quot;&gt;Alto&lt;br style=&quot;border-color: var(--border-color);&quot;&gt;50" style="whiteSpace=wrap;html=1;aspect=fixed;" vertex="1" parent="1">
          <mxGeometry x="152" y="1100" width="50" height="50" as="geometry" />
        </mxCell>
        <mxCell id="ebV7_po07LK992inz8bV-79" value="Lista-04&lt;br style=&quot;border-color: var(--border-color);&quot;&gt;Alto&lt;br style=&quot;border-color: var(--border-color);&quot;&gt;50" style="whiteSpace=wrap;html=1;aspect=fixed;" vertex="1" parent="1">
          <mxGeometry x="232" y="1100" width="50" height="50" as="geometry" />
        </mxCell>
        <mxCell id="ebV7_po07LK992inz8bV-80" value="Lista-05&lt;br style=&quot;border-color: var(--border-color);&quot;&gt;Alto&lt;br style=&quot;border-color: var(--border-color);&quot;&gt;50" style="whiteSpace=wrap;html=1;aspect=fixed;" vertex="1" parent="1">
          <mxGeometry x="306" y="1100" width="50" height="50" as="geometry" />
        </mxCell>
        <mxCell id="ebV7_po07LK992inz8bV-81" value="Lista-06&lt;br style=&quot;border-color: var(--border-color);&quot;&gt;Alto&lt;br style=&quot;border-color: var(--border-color);&quot;&gt;50" style="whiteSpace=wrap;html=1;aspect=fixed;" vertex="1" parent="1">
          <mxGeometry x="382" y="1100" width="50" height="50" as="geometry" />
        </mxCell>
        <mxCell id="ebV7_po07LK992inz8bV-82" value="Lista-07&lt;br style=&quot;border-color: var(--border-color);&quot;&gt;Alto&lt;br style=&quot;border-color: var(--border-color);&quot;&gt;50" style="whiteSpace=wrap;html=1;aspect=fixed;" vertex="1" parent="1">
          <mxGeometry x="452" y="1100" width="50" height="50" as="geometry" />
        </mxCell>
        <mxCell id="ebV7_po07LK992inz8bV-83" value="Lista-08&lt;br style=&quot;border-color: var(--border-color);&quot;&gt;Alto&lt;br style=&quot;border-color: var(--border-color);&quot;&gt;50" style="whiteSpace=wrap;html=1;aspect=fixed;" vertex="1" parent="1">
          <mxGeometry x="522" y="1100" width="50" height="50" as="geometry" />
        </mxCell>
        <mxCell id="ebV7_po07LK992inz8bV-84" value="Lista-09&lt;br style=&quot;border-color: var(--border-color);&quot;&gt;Alto&lt;br style=&quot;border-color: var(--border-color);&quot;&gt;50" style="whiteSpace=wrap;html=1;aspect=fixed;" vertex="1" parent="1">
          <mxGeometry x="602" y="1100" width="50" height="50" as="geometry" />
        </mxCell>
        <mxCell id="ebV7_po07LK992inz8bV-85" value="Lista-10&lt;br style=&quot;border-color: var(--border-color);&quot;&gt;Alto&lt;br style=&quot;border-color: var(--border-color);&quot;&gt;50" style="whiteSpace=wrap;html=1;aspect=fixed;" vertex="1" parent="1">
          <mxGeometry x="682" y="1100" width="50" height="50" as="geometry" />
        </mxCell>
        <mxCell id="ebV7_po07LK992inz8bV-86" value="Lista-11&lt;br style=&quot;border-color: var(--border-color);&quot;&gt;Alto&lt;br style=&quot;border-color: var(--border-color);&quot;&gt;50" style="whiteSpace=wrap;html=1;aspect=fixed;" vertex="1" parent="1">
          <mxGeometry x="2" y="1180" width="50" height="50" as="geometry" />
        </mxCell>
        <mxCell id="ebV7_po07LK992inz8bV-87" value="Lista-12&lt;br style=&quot;border-color: var(--border-color);&quot;&gt;Alto&lt;br style=&quot;border-color: var(--border-color);&quot;&gt;50" style="whiteSpace=wrap;html=1;aspect=fixed;" vertex="1" parent="1">
          <mxGeometry x="72" y="1180" width="50" height="50" as="geometry" />
        </mxCell>
        <mxCell id="ebV7_po07LK992inz8bV-88" value="Lista-13&lt;br style=&quot;border-color: var(--border-color);&quot;&gt;Alto&lt;br style=&quot;border-color: var(--border-color);&quot;&gt;50" style="whiteSpace=wrap;html=1;aspect=fixed;fillColor=#e51400;strokeColor=#B20000;fontColor=#ffffff;" vertex="1" parent="1">
          <mxGeometry x="129" y="320" width="50" height="50" as="geometry" />
        </mxCell>
        <mxCell id="ebV7_po07LK992inz8bV-89" value="Lista-14&lt;br style=&quot;border-color: var(--border-color);&quot;&gt;Alto&lt;br style=&quot;border-color: var(--border-color);&quot;&gt;50" style="whiteSpace=wrap;html=1;aspect=fixed;" vertex="1" parent="1">
          <mxGeometry x="232" y="1180" width="50" height="50" as="geometry" />
        </mxCell>
        <mxCell id="ebV7_po07LK992inz8bV-90" value="Lista-15&lt;br style=&quot;border-color: var(--border-color);&quot;&gt;Alto&lt;br style=&quot;border-color: var(--border-color);&quot;&gt;50" style="whiteSpace=wrap;html=1;aspect=fixed;" vertex="1" parent="1">
          <mxGeometry x="306" y="1180" width="50" height="50" as="geometry" />
        </mxCell>
        <mxCell id="ebV7_po07LK992inz8bV-91" value="Lista-16&lt;br&gt;Alto&lt;br&gt;50" style="whiteSpace=wrap;html=1;aspect=fixed;" vertex="1" parent="1">
          <mxGeometry x="382" y="1180" width="50" height="50" as="geometry" />
        </mxCell>
        <mxCell id="ebV7_po07LK992inz8bV-92" value="&lt;font style=&quot;font-size: 14px;&quot;&gt;Listas com Classificação Alto Pontuação 50&lt;/font&gt;" style="text;html=1;strokeColor=#B20000;fillColor=#e51400;align=center;verticalAlign=middle;whiteSpace=wrap;rounded=0;fontColor=#ffffff;" vertex="1" parent="1">
          <mxGeometry x="3" y="1050" width="290" height="30" as="geometry" />
        </mxCell>
        <mxCell id="ebV7_po07LK992inz8bV-93" value="Lista-06(34)&lt;br style=&quot;border-color: var(--border-color);&quot;&gt;Medio&lt;br style=&quot;border-color: var(--border-color);&quot;&gt;30" style="whiteSpace=wrap;html=1;aspect=fixed;" vertex="1" parent="1">
          <mxGeometry x="457.25" y="1330" width="69.75" height="69.75" as="geometry" />
        </mxCell>
        <mxCell id="ebV7_po07LK992inz8bV-94" value="Lista-07(35)&lt;br style=&quot;border-color: var(--border-color);&quot;&gt;Medio&lt;br style=&quot;border-color: var(--border-color);&quot;&gt;30" style="whiteSpace=wrap;html=1;aspect=fixed;" vertex="1" parent="1">
          <mxGeometry x="552" y="1330" width="69" height="69" as="geometry" />
        </mxCell>
        <mxCell id="ebV7_po07LK992inz8bV-95" value="Lista-01(29)&lt;br style=&quot;border-color: var(--border-color);&quot;&gt;Medio&lt;br style=&quot;border-color: var(--border-color);&quot;&gt;30" style="whiteSpace=wrap;html=1;aspect=fixed;" vertex="1" parent="1">
          <mxGeometry y="1330" width="69" height="69" as="geometry" />
        </mxCell>
        <mxCell id="ebV7_po07LK992inz8bV-96" value="Lista-02(30)&lt;br style=&quot;border-color: var(--border-color);&quot;&gt;Medio&lt;br style=&quot;border-color: var(--border-color);&quot;&gt;30" style="whiteSpace=wrap;html=1;aspect=fixed;" vertex="1" parent="1">
          <mxGeometry x="89" y="1330" width="69" height="69" as="geometry" />
        </mxCell>
        <mxCell id="ebV7_po07LK992inz8bV-97" value="Lista-03(31)&lt;br style=&quot;border-color: var(--border-color);&quot;&gt;Medio&lt;br style=&quot;border-color: var(--border-color);&quot;&gt;30" style="whiteSpace=wrap;html=1;aspect=fixed;" vertex="1" parent="1">
          <mxGeometry x="179" y="1330" width="69" height="69" as="geometry" />
        </mxCell>
        <mxCell id="ebV7_po07LK992inz8bV-98" value="Lista-04(32)&lt;br style=&quot;border-color: var(--border-color);&quot;&gt;Medio&lt;br style=&quot;border-color: var(--border-color);&quot;&gt;30" style="whiteSpace=wrap;html=1;aspect=fixed;" vertex="1" parent="1">
          <mxGeometry x="268" y="1329.25" width="69.75" height="69.75" as="geometry" />
        </mxCell>
        <mxCell id="ebV7_po07LK992inz8bV-99" value="Lista-05(33)&lt;br style=&quot;border-color: var(--border-color);&quot;&gt;Medio&lt;br style=&quot;border-color: var(--border-color);&quot;&gt;30" style="whiteSpace=wrap;html=1;aspect=fixed;" vertex="1" parent="1">
          <mxGeometry x="361" y="1329.25" width="69.75" height="69.75" as="geometry" />
        </mxCell>
        <mxCell id="ebV7_po07LK992inz8bV-100" value="&lt;font style=&quot;font-size: 14px;&quot;&gt;Listas com Classificação Medio Pontuação 30&lt;/font&gt;" style="text;html=1;strokeColor=#B09500;fillColor=#e3c800;align=center;verticalAlign=middle;whiteSpace=wrap;rounded=0;fontColor=#000000;" vertex="1" parent="1">
          <mxGeometry y="1270" width="290" height="30" as="geometry" />
        </mxCell>
        <mxCell id="ebV7_po07LK992inz8bV-102" value="" style="endArrow=none;dashed=1;html=1;dashPattern=1 3;strokeWidth=2;rounded=0;" edge="1" parent="1">
          <mxGeometry width="50" height="50" relative="1" as="geometry">
            <mxPoint y="890" as="sourcePoint" />
            <mxPoint x="1170" y="890" as="targetPoint" />
          </mxGeometry>
        </mxCell>
        <mxCell id="ebV7_po07LK992inz8bV-103" value="" style="endArrow=none;dashed=1;html=1;dashPattern=1 3;strokeWidth=2;rounded=0;" edge="1" parent="1">
          <mxGeometry width="50" height="50" relative="1" as="geometry">
            <mxPoint x="-10.75" y="1040" as="sourcePoint" />
            <mxPoint x="1159.25" y="1040" as="targetPoint" />
          </mxGeometry>
        </mxCell>
        <mxCell id="ebV7_po07LK992inz8bV-104" value="" style="endArrow=none;dashed=1;html=1;dashPattern=1 3;strokeWidth=2;rounded=0;" edge="1" parent="1">
          <mxGeometry width="50" height="50" relative="1" as="geometry">
            <mxPoint x="-19.5" y="1260" as="sourcePoint" />
            <mxPoint x="1150.5" y="1260" as="targetPoint" />
          </mxGeometry>
        </mxCell>
      </root>
    </mxGraphModel>
  </diagram>
  <diagram id="gxDLqPF4aYDy98vTWi8w" name="R2-Risco por Ramo">
    <mxGraphModel dx="2289" dy="691" grid="0" gridSize="10" guides="1" tooltips="1" connect="1" arrows="1" fold="1" page="1" pageScale="1" pageWidth="827" pageHeight="1169" math="0" shadow="0">
      <root>
        <mxCell id="0" />
        <mxCell id="1" parent="0" />
        <mxCell id="jP-lerhvodX3sMg1OUQN-1" value="Pagamento em espécie &amp;gt; 10k" style="rounded=1;whiteSpace=wrap;html=1;" vertex="1" parent="1">
          <mxGeometry y="40" width="220" height="30" as="geometry" />
        </mxCell>
        <mxCell id="jP-lerhvodX3sMg1OUQN-2" value="Sim" style="rounded=0;whiteSpace=wrap;html=1;" vertex="1" parent="1">
          <mxGeometry y="80" width="60" height="20" as="geometry" />
        </mxCell>
        <mxCell id="jP-lerhvodX3sMg1OUQN-3" value="Não" style="rounded=0;whiteSpace=wrap;html=1;" vertex="1" parent="1">
          <mxGeometry y="100" width="60" height="20" as="geometry" />
        </mxCell>
        <mxCell id="jP-lerhvodX3sMg1OUQN-7" value="Soma 50 ao risco anterIor" style="rounded=0;whiteSpace=wrap;html=1;" vertex="1" parent="1">
          <mxGeometry x="60" y="80" width="160" height="20" as="geometry" />
        </mxCell>
        <mxCell id="jP-lerhvodX3sMg1OUQN-15" value="Risco Inicial 20" style="rounded=1;whiteSpace=wrap;html=1;" vertex="1" parent="1">
          <mxGeometry x="-140" y="40" width="120" height="30" as="geometry" />
        </mxCell>
        <mxCell id="jP-lerhvodX3sMg1OUQN-16" value="Inicia em&amp;nbsp; 20" style="rounded=0;whiteSpace=wrap;html=1;" vertex="1" parent="1">
          <mxGeometry x="-140" y="80" width="120" height="50" as="geometry" />
        </mxCell>
        <mxCell id="jP-lerhvodX3sMg1OUQN-17" value="Pontuação Somatório" style="rounded=1;whiteSpace=wrap;html=1;" vertex="1" parent="1">
          <mxGeometry x="-330" y="140" width="176" height="40" as="geometry" />
        </mxCell>
        <mxCell id="jP-lerhvodX3sMg1OUQN-19" value="20" style="rounded=0;whiteSpace=wrap;html=1;fillColor=#d5e8d4;gradientColor=#97d077;strokeColor=#82b366;" vertex="1" parent="1">
          <mxGeometry x="-140" y="140" width="120" height="60" as="geometry" />
        </mxCell>
        <mxCell id="jP-lerhvodX3sMg1OUQN-20" value="sim -&amp;gt; soma 50 -&amp;gt; 20 + 50 = 70" style="rounded=0;whiteSpace=wrap;html=1;fillColor=#d5e8d4;gradientColor=#97d077;strokeColor=#82b366;" vertex="1" parent="1">
          <mxGeometry y="140" width="220" height="20" as="geometry" />
        </mxCell>
        <mxCell id="jP-lerhvodX3sMg1OUQN-21" value="não -&amp;gt; soma 20 -&amp;gt; 20 + 20 = 40" style="rounded=0;whiteSpace=wrap;html=1;fillColor=#d5e8d4;gradientColor=#97d077;strokeColor=#82b366;" vertex="1" parent="1">
          <mxGeometry y="173" width="220" height="20" as="geometry" />
        </mxCell>
        <mxCell id="jP-lerhvodX3sMg1OUQN-39" value="Soma 20 ao risco anterIor" style="rounded=0;whiteSpace=wrap;html=1;" vertex="1" parent="1">
          <mxGeometry x="60" y="100" width="160" height="20" as="geometry" />
        </mxCell>
        <mxCell id="jP-lerhvodX3sMg1OUQN-40" value="Via(Web/ATM/Apps)" style="rounded=1;whiteSpace=wrap;html=1;" vertex="1" parent="1">
          <mxGeometry x="250" y="40" width="220" height="30" as="geometry" />
        </mxCell>
        <mxCell id="jP-lerhvodX3sMg1OUQN-41" value="Sim" style="rounded=0;whiteSpace=wrap;html=1;" vertex="1" parent="1">
          <mxGeometry x="250" y="80" width="60" height="20" as="geometry" />
        </mxCell>
        <mxCell id="jP-lerhvodX3sMg1OUQN-42" value="Não" style="rounded=0;whiteSpace=wrap;html=1;" vertex="1" parent="1">
          <mxGeometry x="250" y="100" width="60" height="20" as="geometry" />
        </mxCell>
        <mxCell id="jP-lerhvodX3sMg1OUQN-43" value="Soma 30 ao risco anterIor" style="rounded=0;whiteSpace=wrap;html=1;" vertex="1" parent="1">
          <mxGeometry x="310" y="80" width="160" height="20" as="geometry" />
        </mxCell>
        <mxCell id="jP-lerhvodX3sMg1OUQN-44" value="sim -&amp;gt; soma 30 -&amp;gt; 70 + 30 = 100" style="rounded=0;whiteSpace=wrap;html=1;fillColor=#d5e8d4;gradientColor=#97d077;strokeColor=#82b366;" vertex="1" parent="1">
          <mxGeometry x="250" y="140" width="220" height="20" as="geometry" />
        </mxCell>
        <mxCell id="jP-lerhvodX3sMg1OUQN-45" value="não -&amp;gt; soma 20 -&amp;gt; 40 + 20 = 60" style="rounded=0;whiteSpace=wrap;html=1;fillColor=#d5e8d4;gradientColor=#97d077;strokeColor=#82b366;" vertex="1" parent="1">
          <mxGeometry x="250" y="171" width="220" height="20" as="geometry" />
        </mxCell>
        <mxCell id="jP-lerhvodX3sMg1OUQN-46" value="Soma 20 ao risco anterIor" style="rounded=0;whiteSpace=wrap;html=1;" vertex="1" parent="1">
          <mxGeometry x="310" y="100" width="160" height="20" as="geometry" />
        </mxCell>
        <mxCell id="jP-lerhvodX3sMg1OUQN-47" value="Via terceiros" style="rounded=1;whiteSpace=wrap;html=1;" vertex="1" parent="1">
          <mxGeometry x="500" y="40" width="220" height="30" as="geometry" />
        </mxCell>
        <mxCell id="jP-lerhvodX3sMg1OUQN-48" value="Sim" style="rounded=0;whiteSpace=wrap;html=1;" vertex="1" parent="1">
          <mxGeometry x="500" y="80" width="60" height="20" as="geometry" />
        </mxCell>
        <mxCell id="jP-lerhvodX3sMg1OUQN-49" value="Não" style="rounded=0;whiteSpace=wrap;html=1;" vertex="1" parent="1">
          <mxGeometry x="500" y="100" width="60" height="20" as="geometry" />
        </mxCell>
        <mxCell id="jP-lerhvodX3sMg1OUQN-50" value="Soma 30 ao risco anterIor" style="rounded=0;whiteSpace=wrap;html=1;" vertex="1" parent="1">
          <mxGeometry x="560" y="80" width="160" height="20" as="geometry" />
        </mxCell>
        <mxCell id="jP-lerhvodX3sMg1OUQN-51" value="sim -&amp;gt; soma 30 -&amp;gt; 100 + 30 = 130" style="rounded=0;whiteSpace=wrap;html=1;fillColor=#ffff88;strokeColor=#36393d;" vertex="1" parent="1">
          <mxGeometry x="500" y="140" width="220" height="20" as="geometry" />
        </mxCell>
        <mxCell id="jP-lerhvodX3sMg1OUQN-52" value="não -&amp;gt; soma 20 -&amp;gt; 60 + 20 = 80" style="rounded=0;whiteSpace=wrap;html=1;fillColor=#d5e8d4;gradientColor=#97d077;strokeColor=#82b366;" vertex="1" parent="1">
          <mxGeometry x="500" y="173" width="220" height="20" as="geometry" />
        </mxCell>
        <mxCell id="jP-lerhvodX3sMg1OUQN-53" value="Soma 20 ao risco anterIor" style="rounded=0;whiteSpace=wrap;html=1;" vertex="1" parent="1">
          <mxGeometry x="560" y="100" width="160" height="20" as="geometry" />
        </mxCell>
        <mxCell id="jP-lerhvodX3sMg1OUQN-54" value="Fora da Rede Caixa" style="rounded=1;whiteSpace=wrap;html=1;" vertex="1" parent="1">
          <mxGeometry x="750" y="40" width="220" height="30" as="geometry" />
        </mxCell>
        <mxCell id="jP-lerhvodX3sMg1OUQN-55" value="Sim" style="rounded=0;whiteSpace=wrap;html=1;" vertex="1" parent="1">
          <mxGeometry x="750" y="80" width="60" height="20" as="geometry" />
        </mxCell>
        <mxCell id="jP-lerhvodX3sMg1OUQN-56" value="Não" style="rounded=0;whiteSpace=wrap;html=1;" vertex="1" parent="1">
          <mxGeometry x="750" y="100" width="60" height="20" as="geometry" />
        </mxCell>
        <mxCell id="jP-lerhvodX3sMg1OUQN-57" value="Soma 30 ao risco anterIor" style="rounded=0;whiteSpace=wrap;html=1;" vertex="1" parent="1">
          <mxGeometry x="810" y="80" width="160" height="20" as="geometry" />
        </mxCell>
        <mxCell id="jP-lerhvodX3sMg1OUQN-58" value="sim -&amp;gt; soma 30 -&amp;gt; 130 + 30 = 160" style="rounded=0;whiteSpace=wrap;html=1;fillColor=#e51400;fontColor=#ffffff;strokeColor=#B20000;" vertex="1" parent="1">
          <mxGeometry x="750" y="140" width="220" height="20" as="geometry" />
        </mxCell>
        <mxCell id="jP-lerhvodX3sMg1OUQN-59" value="não -&amp;gt; soma 20 -&amp;gt; 80 + 20 = 100" style="rounded=0;whiteSpace=wrap;html=1;fillColor=#d5e8d4;gradientColor=#97d077;strokeColor=#82b366;" vertex="1" parent="1">
          <mxGeometry x="750" y="173" width="220" height="20" as="geometry" />
        </mxCell>
        <mxCell id="jP-lerhvodX3sMg1OUQN-60" value="Soma 20 ao risco anterIor" style="rounded=0;whiteSpace=wrap;html=1;" vertex="1" parent="1">
          <mxGeometry x="810" y="100" width="160" height="20" as="geometry" />
        </mxCell>
        <mxCell id="jP-lerhvodX3sMg1OUQN-61" value="&lt;font style=&quot;font-size: 18px;&quot;&gt;Vida&lt;/font&gt;" style="rounded=0;whiteSpace=wrap;html=1;fillColor=#f5f5f5;strokeColor=#666666;gradientColor=#b3b3b3;" vertex="1" parent="1">
          <mxGeometry x="-330" y="40" width="170" height="90" as="geometry" />
        </mxCell>
        <mxCell id="jP-lerhvodX3sMg1OUQN-62" value="&lt;font style=&quot;font-size: 18px;&quot;&gt;Classificação Total&lt;/font&gt;" style="rounded=1;whiteSpace=wrap;html=1;" vertex="1" parent="1">
          <mxGeometry x="1010" y="40" width="270" height="80" as="geometry" />
        </mxCell>
        <mxCell id="jP-lerhvodX3sMg1OUQN-63" value="160 (de 150 até 159 risco&amp;nbsp; Alto) -&amp;gt; Risco Alto&#x9;" style="rounded=0;whiteSpace=wrap;html=1;fillColor=#e51400;fontColor=#ffffff;strokeColor=#B20000;" vertex="1" parent="1">
          <mxGeometry x="1021" y="140" width="259" height="20" as="geometry" />
        </mxCell>
        <mxCell id="jP-lerhvodX3sMg1OUQN-65" value="100 (de 100 até 129 risco Baixo) -&amp;gt; Risco Baixo" style="rounded=0;whiteSpace=wrap;html=1;fillColor=#d5e8d4;gradientColor=#97d077;strokeColor=#82b366;" vertex="1" parent="1">
          <mxGeometry x="1020" y="177" width="259" height="20" as="geometry" />
        </mxCell>
        <mxCell id="jP-lerhvodX3sMg1OUQN-68" value="Pagamento em espécie &amp;gt; 10k" style="rounded=1;whiteSpace=wrap;html=1;" vertex="1" parent="1">
          <mxGeometry x="10" y="240" width="220" height="30" as="geometry" />
        </mxCell>
        <mxCell id="jP-lerhvodX3sMg1OUQN-69" value="Sim" style="rounded=0;whiteSpace=wrap;html=1;" vertex="1" parent="1">
          <mxGeometry x="10" y="280" width="60" height="20" as="geometry" />
        </mxCell>
        <mxCell id="jP-lerhvodX3sMg1OUQN-70" value="Não" style="rounded=0;whiteSpace=wrap;html=1;" vertex="1" parent="1">
          <mxGeometry x="10" y="300" width="60" height="20" as="geometry" />
        </mxCell>
        <mxCell id="jP-lerhvodX3sMg1OUQN-71" value="Soma 50 ao risco anterIor" style="rounded=0;whiteSpace=wrap;html=1;" vertex="1" parent="1">
          <mxGeometry x="70" y="280" width="160" height="20" as="geometry" />
        </mxCell>
        <mxCell id="jP-lerhvodX3sMg1OUQN-72" value="Risco Inicial 20" style="rounded=1;whiteSpace=wrap;html=1;" vertex="1" parent="1">
          <mxGeometry x="-130" y="240" width="120" height="30" as="geometry" />
        </mxCell>
        <mxCell id="jP-lerhvodX3sMg1OUQN-73" value="Inicia em&amp;nbsp; 20" style="rounded=0;whiteSpace=wrap;html=1;" vertex="1" parent="1">
          <mxGeometry x="-130" y="280" width="120" height="50" as="geometry" />
        </mxCell>
        <mxCell id="jP-lerhvodX3sMg1OUQN-74" value="Pontuação Somatório" style="rounded=1;whiteSpace=wrap;html=1;" vertex="1" parent="1">
          <mxGeometry x="-320" y="340" width="167" height="40" as="geometry" />
        </mxCell>
        <mxCell id="jP-lerhvodX3sMg1OUQN-75" value="20" style="rounded=0;whiteSpace=wrap;html=1;fillColor=#d5e8d4;gradientColor=#97d077;strokeColor=#82b366;" vertex="1" parent="1">
          <mxGeometry x="-130" y="340" width="120" height="64" as="geometry" />
        </mxCell>
        <mxCell id="jP-lerhvodX3sMg1OUQN-76" value="sim -&amp;gt; soma 50 -&amp;gt; 20 + 50 = 70" style="rounded=0;whiteSpace=wrap;html=1;fillColor=#d5e8d4;gradientColor=#97d077;strokeColor=#82b366;" vertex="1" parent="1">
          <mxGeometry x="10" y="340" width="220" height="20" as="geometry" />
        </mxCell>
        <mxCell id="jP-lerhvodX3sMg1OUQN-77" value="não -&amp;gt; soma 20 -&amp;gt; 20 + 20 = 40" style="rounded=0;whiteSpace=wrap;html=1;fillColor=#d5e8d4;gradientColor=#97d077;strokeColor=#82b366;" vertex="1" parent="1">
          <mxGeometry x="10" y="373" width="220" height="20" as="geometry" />
        </mxCell>
        <mxCell id="jP-lerhvodX3sMg1OUQN-78" value="Soma 20 ao risco anterIor" style="rounded=0;whiteSpace=wrap;html=1;" vertex="1" parent="1">
          <mxGeometry x="70" y="300" width="160" height="20" as="geometry" />
        </mxCell>
        <mxCell id="jP-lerhvodX3sMg1OUQN-79" value="Via(Web/ATM/Apps)" style="rounded=1;whiteSpace=wrap;html=1;" vertex="1" parent="1">
          <mxGeometry x="260" y="240" width="220" height="30" as="geometry" />
        </mxCell>
        <mxCell id="jP-lerhvodX3sMg1OUQN-80" value="Sim" style="rounded=0;whiteSpace=wrap;html=1;" vertex="1" parent="1">
          <mxGeometry x="260" y="280" width="60" height="20" as="geometry" />
        </mxCell>
        <mxCell id="jP-lerhvodX3sMg1OUQN-81" value="Não" style="rounded=0;whiteSpace=wrap;html=1;" vertex="1" parent="1">
          <mxGeometry x="260" y="300" width="60" height="20" as="geometry" />
        </mxCell>
        <mxCell id="jP-lerhvodX3sMg1OUQN-82" value="Soma 30 ao risco anterIor" style="rounded=0;whiteSpace=wrap;html=1;" vertex="1" parent="1">
          <mxGeometry x="320" y="280" width="160" height="20" as="geometry" />
        </mxCell>
        <mxCell id="jP-lerhvodX3sMg1OUQN-83" value="sim -&amp;gt; soma 30 -&amp;gt; 70 + 30 = 100" style="rounded=0;whiteSpace=wrap;html=1;fillColor=#d5e8d4;gradientColor=#97d077;strokeColor=#82b366;" vertex="1" parent="1">
          <mxGeometry x="260" y="340" width="220" height="20" as="geometry" />
        </mxCell>
        <mxCell id="jP-lerhvodX3sMg1OUQN-84" value="não -&amp;gt; soma 20 -&amp;gt; 40 + 20 = 60" style="rounded=0;whiteSpace=wrap;html=1;fillColor=#d5e8d4;gradientColor=#97d077;strokeColor=#82b366;" vertex="1" parent="1">
          <mxGeometry x="260" y="373" width="220" height="20" as="geometry" />
        </mxCell>
        <mxCell id="jP-lerhvodX3sMg1OUQN-85" value="Soma 20 ao risco anterIor" style="rounded=0;whiteSpace=wrap;html=1;" vertex="1" parent="1">
          <mxGeometry x="320" y="300" width="160" height="20" as="geometry" />
        </mxCell>
        <mxCell id="jP-lerhvodX3sMg1OUQN-86" value="Via terceiros" style="rounded=1;whiteSpace=wrap;html=1;" vertex="1" parent="1">
          <mxGeometry x="510" y="240" width="220" height="30" as="geometry" />
        </mxCell>
        <mxCell id="jP-lerhvodX3sMg1OUQN-87" value="Sim" style="rounded=0;whiteSpace=wrap;html=1;" vertex="1" parent="1">
          <mxGeometry x="510" y="280" width="60" height="20" as="geometry" />
        </mxCell>
        <mxCell id="jP-lerhvodX3sMg1OUQN-88" value="Não" style="rounded=0;whiteSpace=wrap;html=1;" vertex="1" parent="1">
          <mxGeometry x="510" y="300" width="60" height="20" as="geometry" />
        </mxCell>
        <mxCell id="jP-lerhvodX3sMg1OUQN-89" value="Soma 30 ao risco anterIor" style="rounded=0;whiteSpace=wrap;html=1;" vertex="1" parent="1">
          <mxGeometry x="570" y="280" width="160" height="20" as="geometry" />
        </mxCell>
        <mxCell id="jP-lerhvodX3sMg1OUQN-90" value="sim -&amp;gt; soma 30 -&amp;gt; 100 + 30 = 130" style="rounded=0;whiteSpace=wrap;html=1;fillColor=#ffff88;strokeColor=#36393d;" vertex="1" parent="1">
          <mxGeometry x="510" y="340" width="220" height="20" as="geometry" />
        </mxCell>
        <mxCell id="jP-lerhvodX3sMg1OUQN-91" value="não -&amp;gt; soma 20 -&amp;gt; 60 + 20 = 80" style="rounded=0;whiteSpace=wrap;html=1;fillColor=#d5e8d4;gradientColor=#97d077;strokeColor=#82b366;" vertex="1" parent="1">
          <mxGeometry x="510" y="373" width="220" height="20" as="geometry" />
        </mxCell>
        <mxCell id="jP-lerhvodX3sMg1OUQN-92" value="Soma 20 ao risco anterIor" style="rounded=0;whiteSpace=wrap;html=1;" vertex="1" parent="1">
          <mxGeometry x="570" y="300" width="160" height="20" as="geometry" />
        </mxCell>
        <mxCell id="jP-lerhvodX3sMg1OUQN-93" value="Fora da Rede Caixa" style="rounded=1;whiteSpace=wrap;html=1;" vertex="1" parent="1">
          <mxGeometry x="760" y="240" width="220" height="30" as="geometry" />
        </mxCell>
        <mxCell id="jP-lerhvodX3sMg1OUQN-94" value="Sim" style="rounded=0;whiteSpace=wrap;html=1;" vertex="1" parent="1">
          <mxGeometry x="760" y="280" width="60" height="20" as="geometry" />
        </mxCell>
        <mxCell id="jP-lerhvodX3sMg1OUQN-95" value="Não" style="rounded=0;whiteSpace=wrap;html=1;" vertex="1" parent="1">
          <mxGeometry x="760" y="300" width="60" height="20" as="geometry" />
        </mxCell>
        <mxCell id="jP-lerhvodX3sMg1OUQN-96" value="Soma 30 ao risco anterIor" style="rounded=0;whiteSpace=wrap;html=1;" vertex="1" parent="1">
          <mxGeometry x="820" y="280" width="160" height="20" as="geometry" />
        </mxCell>
        <mxCell id="jP-lerhvodX3sMg1OUQN-97" value="sim -&amp;gt; soma 30 -&amp;gt; 130 + 30 = 160" style="rounded=0;whiteSpace=wrap;html=1;fillColor=#e51400;fontColor=#ffffff;strokeColor=#B20000;" vertex="1" parent="1">
          <mxGeometry x="760" y="340" width="220" height="20" as="geometry" />
        </mxCell>
        <mxCell id="jP-lerhvodX3sMg1OUQN-98" value="não -&amp;gt; soma 20 -&amp;gt; 80 + 20 = 100" style="rounded=0;whiteSpace=wrap;html=1;fillColor=#d5e8d4;gradientColor=#97d077;strokeColor=#82b366;" vertex="1" parent="1">
          <mxGeometry x="760" y="376" width="220" height="20" as="geometry" />
        </mxCell>
        <mxCell id="jP-lerhvodX3sMg1OUQN-99" value="Soma 20 ao risco anterIor" style="rounded=0;whiteSpace=wrap;html=1;" vertex="1" parent="1">
          <mxGeometry x="820" y="300" width="160" height="20" as="geometry" />
        </mxCell>
        <mxCell id="jP-lerhvodX3sMg1OUQN-100" value="&lt;font style=&quot;font-size: 18px;&quot;&gt;Prestamista&lt;/font&gt;" style="rounded=0;whiteSpace=wrap;html=1;fillColor=#dae8fc;strokeColor=#6c8ebf;gradientColor=#7ea6e0;" vertex="1" parent="1">
          <mxGeometry x="-320" y="240" width="170" height="90" as="geometry" />
        </mxCell>
        <mxCell id="jP-lerhvodX3sMg1OUQN-101" value="&lt;font style=&quot;font-size: 18px;&quot;&gt;Classificação Total&lt;/font&gt;" style="rounded=1;whiteSpace=wrap;html=1;" vertex="1" parent="1">
          <mxGeometry x="1020" y="240" width="270" height="80" as="geometry" />
        </mxCell>
        <mxCell id="jP-lerhvodX3sMg1OUQN-102" value="160 (de 150 até 159 risco&amp;nbsp; Alto) -&amp;gt; Risco Alto&#x9;" style="rounded=0;whiteSpace=wrap;html=1;fillColor=#e51400;fontColor=#ffffff;strokeColor=#B20000;" vertex="1" parent="1">
          <mxGeometry x="1031" y="340" width="259" height="20" as="geometry" />
        </mxCell>
        <mxCell id="jP-lerhvodX3sMg1OUQN-103" value="100 (de 100 até 129 risco Baixo) -&amp;gt; Risco Baixo" style="rounded=0;whiteSpace=wrap;html=1;fillColor=#d5e8d4;gradientColor=#97d077;strokeColor=#82b366;" vertex="1" parent="1">
          <mxGeometry x="1028" y="376" width="259" height="20" as="geometry" />
        </mxCell>
        <mxCell id="jP-lerhvodX3sMg1OUQN-104" value="Pagamento em espécie &amp;gt; 10k" style="rounded=1;whiteSpace=wrap;html=1;" vertex="1" parent="1">
          <mxGeometry x="10" y="440" width="220" height="30" as="geometry" />
        </mxCell>
        <mxCell id="jP-lerhvodX3sMg1OUQN-105" value="Sim" style="rounded=0;whiteSpace=wrap;html=1;" vertex="1" parent="1">
          <mxGeometry x="10" y="480" width="60" height="20" as="geometry" />
        </mxCell>
        <mxCell id="jP-lerhvodX3sMg1OUQN-106" value="Não" style="rounded=0;whiteSpace=wrap;html=1;" vertex="1" parent="1">
          <mxGeometry x="10" y="500" width="60" height="20" as="geometry" />
        </mxCell>
        <mxCell id="jP-lerhvodX3sMg1OUQN-107" value="Soma 50 ao risco anterIor" style="rounded=0;whiteSpace=wrap;html=1;" vertex="1" parent="1">
          <mxGeometry x="70" y="480" width="160" height="20" as="geometry" />
        </mxCell>
        <mxCell id="jP-lerhvodX3sMg1OUQN-108" value="Risco Inicial 50" style="rounded=1;whiteSpace=wrap;html=1;" vertex="1" parent="1">
          <mxGeometry x="-130" y="440" width="120" height="30" as="geometry" />
        </mxCell>
        <mxCell id="jP-lerhvodX3sMg1OUQN-109" value="Inicia em&amp;nbsp; 50" style="rounded=0;whiteSpace=wrap;html=1;" vertex="1" parent="1">
          <mxGeometry x="-130" y="480" width="120" height="50" as="geometry" />
        </mxCell>
        <mxCell id="jP-lerhvodX3sMg1OUQN-110" value="Pontuação Somatório" style="rounded=1;whiteSpace=wrap;html=1;" vertex="1" parent="1">
          <mxGeometry x="-320" y="540" width="168" height="40" as="geometry" />
        </mxCell>
        <mxCell id="jP-lerhvodX3sMg1OUQN-111" value="50" style="rounded=0;whiteSpace=wrap;html=1;fillColor=#d5e8d4;gradientColor=#97d077;strokeColor=#82b366;" vertex="1" parent="1">
          <mxGeometry x="-134" y="540" width="120" height="55" as="geometry" />
        </mxCell>
        <mxCell id="jP-lerhvodX3sMg1OUQN-112" value="sim -&amp;gt; soma 50 -&amp;gt; 50 + 50 = 100" style="rounded=0;whiteSpace=wrap;html=1;fillColor=#d5e8d4;gradientColor=#97d077;strokeColor=#82b366;" vertex="1" parent="1">
          <mxGeometry x="10" y="540" width="220" height="20" as="geometry" />
        </mxCell>
        <mxCell id="jP-lerhvodX3sMg1OUQN-113" value="não -&amp;gt; soma 20 -&amp;gt; 50 + 20 = 70" style="rounded=0;whiteSpace=wrap;html=1;fillColor=#d5e8d4;gradientColor=#97d077;strokeColor=#82b366;" vertex="1" parent="1">
          <mxGeometry x="10" y="569" width="220" height="20" as="geometry" />
        </mxCell>
        <mxCell id="jP-lerhvodX3sMg1OUQN-114" value="Soma 20 ao risco anterIor" style="rounded=0;whiteSpace=wrap;html=1;" vertex="1" parent="1">
          <mxGeometry x="70" y="500" width="160" height="20" as="geometry" />
        </mxCell>
        <mxCell id="jP-lerhvodX3sMg1OUQN-115" value="Via(Web/ATM/Apps)" style="rounded=1;whiteSpace=wrap;html=1;" vertex="1" parent="1">
          <mxGeometry x="260" y="440" width="220" height="30" as="geometry" />
        </mxCell>
        <mxCell id="jP-lerhvodX3sMg1OUQN-116" value="Sim" style="rounded=0;whiteSpace=wrap;html=1;" vertex="1" parent="1">
          <mxGeometry x="260" y="480" width="60" height="20" as="geometry" />
        </mxCell>
        <mxCell id="jP-lerhvodX3sMg1OUQN-117" value="Não" style="rounded=0;whiteSpace=wrap;html=1;" vertex="1" parent="1">
          <mxGeometry x="260" y="500" width="60" height="20" as="geometry" />
        </mxCell>
        <mxCell id="jP-lerhvodX3sMg1OUQN-118" value="Soma 30 ao risco anterIor" style="rounded=0;whiteSpace=wrap;html=1;" vertex="1" parent="1">
          <mxGeometry x="320" y="480" width="160" height="20" as="geometry" />
        </mxCell>
        <mxCell id="jP-lerhvodX3sMg1OUQN-119" value="sim -&amp;gt; soma 30 -&amp;gt; 100 + 30 = 130" style="rounded=0;whiteSpace=wrap;html=1;fillColor=#ffff88;strokeColor=#36393d;" vertex="1" parent="1">
          <mxGeometry x="260" y="540" width="220" height="20" as="geometry" />
        </mxCell>
        <mxCell id="jP-lerhvodX3sMg1OUQN-120" value="não -&amp;gt; soma 20 -&amp;gt; 70 + 20 = 90" style="rounded=0;whiteSpace=wrap;html=1;fillColor=#cdeb8b;strokeColor=#36393d;" vertex="1" parent="1">
          <mxGeometry x="260" y="569" width="220" height="20" as="geometry" />
        </mxCell>
        <mxCell id="jP-lerhvodX3sMg1OUQN-121" value="Soma 20 ao risco anterIor" style="rounded=0;whiteSpace=wrap;html=1;" vertex="1" parent="1">
          <mxGeometry x="320" y="500" width="160" height="20" as="geometry" />
        </mxCell>
        <mxCell id="jP-lerhvodX3sMg1OUQN-122" value="Via terceiros" style="rounded=1;whiteSpace=wrap;html=1;" vertex="1" parent="1">
          <mxGeometry x="510" y="440" width="220" height="30" as="geometry" />
        </mxCell>
        <mxCell id="jP-lerhvodX3sMg1OUQN-123" value="Sim" style="rounded=0;whiteSpace=wrap;html=1;" vertex="1" parent="1">
          <mxGeometry x="510" y="480" width="60" height="20" as="geometry" />
        </mxCell>
        <mxCell id="jP-lerhvodX3sMg1OUQN-124" value="Não" style="rounded=0;whiteSpace=wrap;html=1;" vertex="1" parent="1">
          <mxGeometry x="510" y="500" width="60" height="20" as="geometry" />
        </mxCell>
        <mxCell id="jP-lerhvodX3sMg1OUQN-125" value="Soma 30 ao risco anterIor" style="rounded=0;whiteSpace=wrap;html=1;" vertex="1" parent="1">
          <mxGeometry x="570" y="480" width="160" height="20" as="geometry" />
        </mxCell>
        <mxCell id="jP-lerhvodX3sMg1OUQN-126" value="sim -&amp;gt; soma 30 -&amp;gt; 130 + 30 = 160" style="rounded=0;whiteSpace=wrap;html=1;fillColor=#e51400;fontColor=#ffffff;strokeColor=#B20000;" vertex="1" parent="1">
          <mxGeometry x="510" y="540" width="220" height="20" as="geometry" />
        </mxCell>
        <mxCell id="jP-lerhvodX3sMg1OUQN-127" value="não -&amp;gt; soma 20 -&amp;gt; 90 + 20 = 110" style="rounded=0;whiteSpace=wrap;html=1;fillColor=#ffff88;strokeColor=#36393d;" vertex="1" parent="1">
          <mxGeometry x="510" y="569" width="220" height="20" as="geometry" />
        </mxCell>
        <mxCell id="jP-lerhvodX3sMg1OUQN-128" value="Soma 20 ao risco anterIor" style="rounded=0;whiteSpace=wrap;html=1;" vertex="1" parent="1">
          <mxGeometry x="570" y="500" width="160" height="20" as="geometry" />
        </mxCell>
        <mxCell id="jP-lerhvodX3sMg1OUQN-129" value="Fora da Rede Caixa" style="rounded=1;whiteSpace=wrap;html=1;" vertex="1" parent="1">
          <mxGeometry x="760" y="440" width="220" height="30" as="geometry" />
        </mxCell>
        <mxCell id="jP-lerhvodX3sMg1OUQN-130" value="Sim" style="rounded=0;whiteSpace=wrap;html=1;" vertex="1" parent="1">
          <mxGeometry x="760" y="480" width="60" height="20" as="geometry" />
        </mxCell>
        <mxCell id="jP-lerhvodX3sMg1OUQN-131" value="Não" style="rounded=0;whiteSpace=wrap;html=1;" vertex="1" parent="1">
          <mxGeometry x="760" y="500" width="60" height="20" as="geometry" />
        </mxCell>
        <mxCell id="jP-lerhvodX3sMg1OUQN-132" value="Soma 30 ao risco anterIor" style="rounded=0;whiteSpace=wrap;html=1;" vertex="1" parent="1">
          <mxGeometry x="820" y="480" width="160" height="20" as="geometry" />
        </mxCell>
        <mxCell id="jP-lerhvodX3sMg1OUQN-133" value="sim -&amp;gt; soma 30 -&amp;gt; 160 + 30 = 190" style="rounded=0;whiteSpace=wrap;html=1;fillColor=#a20025;fontColor=#ffffff;strokeColor=#6F0000;" vertex="1" parent="1">
          <mxGeometry x="760" y="540" width="220" height="20" as="geometry" />
        </mxCell>
        <mxCell id="jP-lerhvodX3sMg1OUQN-134" value="não -&amp;gt; soma 20 -&amp;gt; 110 + 20 = 130" style="rounded=0;whiteSpace=wrap;html=1;fillColor=#ffff88;strokeColor=#36393d;" vertex="1" parent="1">
          <mxGeometry x="765" y="572" width="220" height="20" as="geometry" />
        </mxCell>
        <mxCell id="jP-lerhvodX3sMg1OUQN-135" value="Soma 20 ao risco anterIor" style="rounded=0;whiteSpace=wrap;html=1;" vertex="1" parent="1">
          <mxGeometry x="820" y="500" width="160" height="20" as="geometry" />
        </mxCell>
        <mxCell id="jP-lerhvodX3sMg1OUQN-136" value="&lt;font style=&quot;font-size: 18px;&quot;&gt;Previdencia&lt;/font&gt;" style="rounded=0;whiteSpace=wrap;html=1;fillColor=#ffcd28;strokeColor=#d79b00;gradientColor=#ffa500;" vertex="1" parent="1">
          <mxGeometry x="-320" y="440" width="170" height="90" as="geometry" />
        </mxCell>
        <mxCell id="jP-lerhvodX3sMg1OUQN-137" value="&lt;font style=&quot;font-size: 18px;&quot;&gt;Classificação Total&lt;/font&gt;" style="rounded=1;whiteSpace=wrap;html=1;" vertex="1" parent="1">
          <mxGeometry x="1020" y="440" width="270" height="80" as="geometry" />
        </mxCell>
        <mxCell id="jP-lerhvodX3sMg1OUQN-138" value="190 (de 150 até 159 risco&amp;nbsp; Alto) -&amp;gt; Risco Critico&#x9;" style="rounded=0;whiteSpace=wrap;html=1;fillColor=#a20025;fontColor=#ffffff;strokeColor=#6F0000;" vertex="1" parent="1">
          <mxGeometry x="1031" y="540" width="269" height="20" as="geometry" />
        </mxCell>
        <mxCell id="jP-lerhvodX3sMg1OUQN-139" value="130 (de 130 até 149 risco Médio) -&amp;gt; Risco Médio" style="rounded=0;whiteSpace=wrap;html=1;fillColor=#ffff88;strokeColor=#36393d;" vertex="1" parent="1">
          <mxGeometry x="1028" y="569" width="269" height="20" as="geometry" />
        </mxCell>
        <mxCell id="jP-lerhvodX3sMg1OUQN-140" value="" style="endArrow=none;dashed=1;html=1;rounded=0;" edge="1" parent="1">
          <mxGeometry width="50" height="50" relative="1" as="geometry">
            <mxPoint x="-400" y="210" as="sourcePoint" />
            <mxPoint x="1360" y="210" as="targetPoint" />
          </mxGeometry>
        </mxCell>
        <mxCell id="jP-lerhvodX3sMg1OUQN-141" value="" style="endArrow=none;dashed=1;html=1;rounded=0;" edge="1" parent="1">
          <mxGeometry width="50" height="50" relative="1" as="geometry">
            <mxPoint x="-400" y="410" as="sourcePoint" />
            <mxPoint x="1360" y="410" as="targetPoint" />
          </mxGeometry>
        </mxCell>
        <mxCell id="jP-lerhvodX3sMg1OUQN-142" value="" style="endArrow=none;dashed=1;html=1;rounded=0;" edge="1" parent="1">
          <mxGeometry width="50" height="50" relative="1" as="geometry">
            <mxPoint x="-420" y="623" as="sourcePoint" />
            <mxPoint x="1340" y="623" as="targetPoint" />
          </mxGeometry>
        </mxCell>
        <mxCell id="jP-lerhvodX3sMg1OUQN-143" value="" style="endArrow=none;dashed=1;html=1;rounded=0;" edge="1" parent="1">
          <mxGeometry width="50" height="50" relative="1" as="geometry">
            <mxPoint x="-140" y="620" as="sourcePoint" />
            <mxPoint x="-150" y="20" as="targetPoint" />
          </mxGeometry>
        </mxCell>
        <mxCell id="jP-lerhvodX3sMg1OUQN-145" value="" style="endArrow=none;dashed=1;html=1;rounded=0;" edge="1" parent="1">
          <mxGeometry width="50" height="50" relative="1" as="geometry">
            <mxPoint x="1000" y="620" as="sourcePoint" />
            <mxPoint x="1000" y="20" as="targetPoint" />
          </mxGeometry>
        </mxCell>
        <mxCell id="jP-lerhvodX3sMg1OUQN-146" value="" style="endArrow=none;dashed=1;html=1;rounded=0;" edge="1" parent="1">
          <mxGeometry width="50" height="50" relative="1" as="geometry">
            <mxPoint x="740" y="620" as="sourcePoint" />
            <mxPoint x="740" y="20" as="targetPoint" />
          </mxGeometry>
        </mxCell>
        <mxCell id="jP-lerhvodX3sMg1OUQN-147" value="" style="endArrow=none;dashed=1;html=1;rounded=0;" edge="1" parent="1">
          <mxGeometry width="50" height="50" relative="1" as="geometry">
            <mxPoint x="498.66999999999996" y="619" as="sourcePoint" />
            <mxPoint x="498.66999999999996" y="19" as="targetPoint" />
          </mxGeometry>
        </mxCell>
        <mxCell id="jP-lerhvodX3sMg1OUQN-148" value="" style="endArrow=none;dashed=1;html=1;rounded=0;" edge="1" parent="1">
          <mxGeometry width="50" height="50" relative="1" as="geometry">
            <mxPoint x="244" y="626" as="sourcePoint" />
            <mxPoint x="244" y="40" as="targetPoint" />
          </mxGeometry>
        </mxCell>
        <mxCell id="jP-lerhvodX3sMg1OUQN-149" value="" style="endArrow=none;dashed=1;html=1;rounded=0;" edge="1" parent="1">
          <mxGeometry width="50" height="50" relative="1" as="geometry">
            <mxPoint x="-1" y="620" as="sourcePoint" />
            <mxPoint x="-1" y="20" as="targetPoint" />
          </mxGeometry>
        </mxCell>
        <mxCell id="jP-lerhvodX3sMg1OUQN-150" value="" style="endArrow=none;dashed=1;html=1;rounded=0;" edge="1" parent="1">
          <mxGeometry width="50" height="50" relative="1" as="geometry">
            <mxPoint x="-400" y="610" as="sourcePoint" />
            <mxPoint x="-400" y="10" as="targetPoint" />
          </mxGeometry>
        </mxCell>
        <mxCell id="jP-lerhvodX3sMg1OUQN-151" value="" style="endArrow=none;dashed=1;html=1;rounded=0;" edge="1" parent="1">
          <mxGeometry width="50" height="50" relative="1" as="geometry">
            <mxPoint x="1330" y="630" as="sourcePoint" />
            <mxPoint x="1330" y="30" as="targetPoint" />
          </mxGeometry>
        </mxCell>
        <mxCell id="jP-lerhvodX3sMg1OUQN-152" value="" style="endArrow=none;dashed=1;html=1;rounded=0;" edge="1" parent="1">
          <mxGeometry width="50" height="50" relative="1" as="geometry">
            <mxPoint x="-405" y="13" as="sourcePoint" />
            <mxPoint x="1355" y="13" as="targetPoint" />
          </mxGeometry>
        </mxCell>
        <mxCell id="jP-lerhvodX3sMg1OUQN-153" value="" style="endArrow=none;dashed=1;html=1;rounded=0;" edge="1" parent="1">
          <mxGeometry width="50" height="50" relative="1" as="geometry">
            <mxPoint x="-4" y="564" as="sourcePoint" />
            <mxPoint x="1324" y="564" as="targetPoint" />
          </mxGeometry>
        </mxCell>
        <mxCell id="jP-lerhvodX3sMg1OUQN-154" value="" style="endArrow=none;dashed=1;html=1;rounded=0;" edge="1" parent="1">
          <mxGeometry width="50" height="50" relative="1" as="geometry">
            <mxPoint x="-150" y="134" as="sourcePoint" />
            <mxPoint x="1325" y="134" as="targetPoint" />
          </mxGeometry>
        </mxCell>
        <mxCell id="jP-lerhvodX3sMg1OUQN-155" value="" style="endArrow=none;dashed=1;html=1;rounded=0;" edge="1" parent="1">
          <mxGeometry width="50" height="50" relative="1" as="geometry">
            <mxPoint y="165" as="sourcePoint" />
            <mxPoint x="1328" y="165" as="targetPoint" />
          </mxGeometry>
        </mxCell>
        <mxCell id="jP-lerhvodX3sMg1OUQN-159" value="" style="endArrow=none;dashed=1;html=1;rounded=0;" edge="1" parent="1">
          <mxGeometry width="50" height="50" relative="1" as="geometry">
            <mxPoint x="3" y="367" as="sourcePoint" />
            <mxPoint x="1331" y="367" as="targetPoint" />
          </mxGeometry>
        </mxCell>
        <mxCell id="jP-lerhvodX3sMg1OUQN-160" value="" style="endArrow=none;dashed=1;html=1;rounded=0;" edge="1" parent="1">
          <mxGeometry width="50" height="50" relative="1" as="geometry">
            <mxPoint x="3" y="761" as="sourcePoint" />
            <mxPoint x="1331" y="761" as="targetPoint" />
          </mxGeometry>
        </mxCell>
        <mxCell id="jP-lerhvodX3sMg1OUQN-161" value="" style="endArrow=none;dashed=1;html=1;rounded=0;" edge="1" parent="1">
          <mxGeometry width="50" height="50" relative="1" as="geometry">
            <mxPoint y="780" as="sourcePoint" />
            <mxPoint x="1328" y="780" as="targetPoint" />
          </mxGeometry>
        </mxCell>
        <mxCell id="jP-lerhvodX3sMg1OUQN-162" value="" style="endArrow=none;dashed=1;html=1;rounded=0;" edge="1" parent="1">
          <mxGeometry width="50" height="50" relative="1" as="geometry">
            <mxPoint x="4" y="744" as="sourcePoint" />
            <mxPoint x="1332" y="744" as="targetPoint" />
          </mxGeometry>
        </mxCell>
        <mxCell id="jP-lerhvodX3sMg1OUQN-163" value="" style="endArrow=none;dashed=1;html=1;rounded=0;" edge="1" parent="1">
          <mxGeometry width="50" height="50" relative="1" as="geometry">
            <mxPoint x="-140" y="536" as="sourcePoint" />
            <mxPoint x="1327" y="539" as="targetPoint" />
          </mxGeometry>
        </mxCell>
        <mxCell id="jP-lerhvodX3sMg1OUQN-164" value="" style="endArrow=none;dashed=1;html=1;rounded=0;" edge="1" parent="1">
          <mxGeometry width="50" height="50" relative="1" as="geometry">
            <mxPoint x="-146" y="335" as="sourcePoint" />
            <mxPoint x="1324" y="335" as="targetPoint" />
          </mxGeometry>
        </mxCell>
        <mxCell id="jP-lerhvodX3sMg1OUQN-165" value="" style="endArrow=none;dashed=1;html=1;rounded=0;" edge="1" parent="1">
          <mxGeometry width="50" height="50" relative="1" as="geometry">
            <mxPoint x="-138" y="600" as="sourcePoint" />
            <mxPoint x="1329" y="600" as="targetPoint" />
          </mxGeometry>
        </mxCell>
      </root>
    </mxGraphModel>
  </diagram>
  <diagram id="Y1hBxN9KjVXhjasmsxYn" name="R3-Risco por Transação">
    <mxGraphModel dx="2289" dy="1860" grid="0" gridSize="10" guides="1" tooltips="1" connect="1" arrows="1" fold="1" page="1" pageScale="1" pageWidth="827" pageHeight="1169" math="0" shadow="0">
      <root>
        <mxCell id="0" />
        <mxCell id="1" parent="0" />
        <mxCell id="YmXbSoZYPWEl5EygV1TD-1" value="1- Previdencia" style="rounded=0;whiteSpace=wrap;html=1;fillColor=#f0a30a;fontColor=#000000;strokeColor=#BD7000;" vertex="1" parent="1">
          <mxGeometry x="-280" y="-50" width="1430" height="20" as="geometry" />
        </mxCell>
        <mxCell id="YmXbSoZYPWEl5EygV1TD-2" value="1.1.1-Adesão previdência-&amp;gt;contratação-&amp;gt;PF" style="rounded=0;whiteSpace=wrap;html=1;" vertex="1" parent="1">
          <mxGeometry x="-280" y="10" width="380" height="20" as="geometry" />
        </mxCell>
        <mxCell id="YmXbSoZYPWEl5EygV1TD-3" value="1.1.2-Adesão previdência-&amp;gt;contratação-&amp;gt;PJ" style="rounded=0;whiteSpace=wrap;html=1;" vertex="1" parent="1">
          <mxGeometry x="-280" y="40" width="380" height="20" as="geometry" />
        </mxCell>
        <mxCell id="YmXbSoZYPWEl5EygV1TD-4" value="1.5.1-Cancelamento previdência carência (&amp;lt;= 7 dias) -&amp;gt; PF ou PJ ?)" style="rounded=0;whiteSpace=wrap;html=1;" vertex="1" parent="1">
          <mxGeometry x="-278.5" y="410" width="380" height="20" as="geometry" />
        </mxCell>
        <mxCell id="YmXbSoZYPWEl5EygV1TD-8" value="valor &amp;lt;= 10K -&amp;gt; risco baixo" style="rounded=0;whiteSpace=wrap;html=1;fillColor=#cdeb8b;strokeColor=#36393d;" vertex="1" parent="1">
          <mxGeometry x="120" y="-20" width="180" height="20" as="geometry" />
        </mxCell>
        <mxCell id="YmXbSoZYPWEl5EygV1TD-9" value="10k &amp;lt; valor &amp;lt;= 20K -&amp;gt; risco medio" style="rounded=0;whiteSpace=wrap;html=1;fillColor=#ffff88;strokeColor=#36393d;" vertex="1" parent="1">
          <mxGeometry x="310" y="-20" width="200" height="20" as="geometry" />
        </mxCell>
        <mxCell id="YmXbSoZYPWEl5EygV1TD-10" value="valor &amp;lt;= 50K -&amp;gt; risco alto" style="rounded=0;whiteSpace=wrap;html=1;fillColor=#e51400;fontColor=#ffffff;strokeColor=#B20000;" vertex="1" parent="1">
          <mxGeometry x="530" y="-20" width="180" height="20" as="geometry" />
        </mxCell>
        <mxCell id="YmXbSoZYPWEl5EygV1TD-11" value="50K -&amp;gt; risco critico" style="rounded=0;whiteSpace=wrap;html=1;fillColor=#6a00ff;fontColor=#ffffff;strokeColor=#3700CC;" vertex="1" parent="1">
          <mxGeometry x="730" y="-20" width="180" height="20" as="geometry" />
        </mxCell>
        <mxCell id="YmXbSoZYPWEl5EygV1TD-12" value="1.1-Contratação - Adesão previdência" style="rounded=0;whiteSpace=wrap;html=1;fillColor=#f0a30a;fontColor=#000000;strokeColor=#BD7000;" vertex="1" parent="1">
          <mxGeometry x="-280" y="-20" width="380" height="20" as="geometry" />
        </mxCell>
        <mxCell id="YmXbSoZYPWEl5EygV1TD-13" value="Risco Final com base na Transação" style="rounded=0;whiteSpace=wrap;html=1;fillColor=#ffcd28;gradientColor=#ffa500;strokeColor=#d79b00;" vertex="1" parent="1">
          <mxGeometry x="930" y="-20" width="220" height="20" as="geometry" />
        </mxCell>
        <mxCell id="YmXbSoZYPWEl5EygV1TD-14" value="" style="rounded=0;whiteSpace=wrap;html=1;" vertex="1" parent="1">
          <mxGeometry x="314" y="10" width="196" height="20" as="geometry" />
        </mxCell>
        <mxCell id="YmXbSoZYPWEl5EygV1TD-15" value="SIM" style="rounded=0;whiteSpace=wrap;html=1;fillColor=#e51400;fontColor=#ffffff;strokeColor=#B20000;" vertex="1" parent="1">
          <mxGeometry x="530" y="10" width="180" height="20" as="geometry" />
        </mxCell>
        <mxCell id="YmXbSoZYPWEl5EygV1TD-16" value="" style="rounded=0;whiteSpace=wrap;html=1;" vertex="1" parent="1">
          <mxGeometry x="730" y="10" width="180" height="20" as="geometry" />
        </mxCell>
        <mxCell id="YmXbSoZYPWEl5EygV1TD-17" value="ALTO" style="rounded=0;whiteSpace=wrap;html=1;fillColor=#e51400;fontColor=#ffffff;strokeColor=#B20000;" vertex="1" parent="1">
          <mxGeometry x="930" y="10" width="220" height="20" as="geometry" />
        </mxCell>
        <mxCell id="3xOOBhgcbtK5ySfa0UlJ-1" value="" style="rounded=0;whiteSpace=wrap;html=1;" vertex="1" parent="1">
          <mxGeometry x="120" y="40" width="180" height="20" as="geometry" />
        </mxCell>
        <mxCell id="3xOOBhgcbtK5ySfa0UlJ-2" value="" style="rounded=0;whiteSpace=wrap;html=1;" vertex="1" parent="1">
          <mxGeometry x="314" y="40" width="196" height="20" as="geometry" />
        </mxCell>
        <mxCell id="3xOOBhgcbtK5ySfa0UlJ-3" value="" style="rounded=0;whiteSpace=wrap;html=1;" vertex="1" parent="1">
          <mxGeometry x="530" y="40" width="180" height="20" as="geometry" />
        </mxCell>
        <mxCell id="3xOOBhgcbtK5ySfa0UlJ-4" value="" style="rounded=0;whiteSpace=wrap;html=1;" vertex="1" parent="1">
          <mxGeometry x="730" y="40" width="180" height="20" as="geometry" />
        </mxCell>
        <mxCell id="3xOOBhgcbtK5ySfa0UlJ-5" value="" style="rounded=0;whiteSpace=wrap;html=1;" vertex="1" parent="1">
          <mxGeometry x="930" y="40" width="220" height="20" as="geometry" />
        </mxCell>
        <mxCell id="3xOOBhgcbtK5ySfa0UlJ-6" value="" style="rounded=0;whiteSpace=wrap;html=1;" vertex="1" parent="1">
          <mxGeometry x="121.5" y="410" width="180" height="20" as="geometry" />
        </mxCell>
        <mxCell id="3xOOBhgcbtK5ySfa0UlJ-7" value="" style="rounded=0;whiteSpace=wrap;html=1;" vertex="1" parent="1">
          <mxGeometry x="315.5" y="410" width="196" height="20" as="geometry" />
        </mxCell>
        <mxCell id="3xOOBhgcbtK5ySfa0UlJ-8" value="" style="rounded=0;whiteSpace=wrap;html=1;" vertex="1" parent="1">
          <mxGeometry x="531.5" y="410" width="180" height="20" as="geometry" />
        </mxCell>
        <mxCell id="3xOOBhgcbtK5ySfa0UlJ-9" value="SIM" style="rounded=0;whiteSpace=wrap;html=1;fillColor=#6a00ff;fontColor=#ffffff;strokeColor=#3700CC;" vertex="1" parent="1">
          <mxGeometry x="731.5" y="410" width="180" height="20" as="geometry" />
        </mxCell>
        <mxCell id="3xOOBhgcbtK5ySfa0UlJ-10" value="CRITICO" style="rounded=0;whiteSpace=wrap;html=1;fillColor=#6a00ff;fontColor=#ffffff;strokeColor=#3700CC;" vertex="1" parent="1">
          <mxGeometry x="931.5" y="410" width="220" height="20" as="geometry" />
        </mxCell>
        <mxCell id="zZVvMI4gv1tgmaWDn2k2-1" value="1.2.1-Aporte previdência-&amp;gt;PF" style="rounded=0;whiteSpace=wrap;html=1;" vertex="1" parent="1">
          <mxGeometry x="-278.5" y="110" width="380" height="20" as="geometry" />
        </mxCell>
        <mxCell id="zZVvMI4gv1tgmaWDn2k2-2" value="1.2.2-Aporte previdência-&amp;gt;PJ" style="rounded=0;whiteSpace=wrap;html=1;" vertex="1" parent="1">
          <mxGeometry x="-278.5" y="140" width="380" height="20" as="geometry" />
        </mxCell>
        <mxCell id="zZVvMI4gv1tgmaWDn2k2-4" value="" style="rounded=0;whiteSpace=wrap;html=1;" vertex="1" parent="1">
          <mxGeometry x="121.5" y="110" width="180" height="20" as="geometry" />
        </mxCell>
        <mxCell id="zZVvMI4gv1tgmaWDn2k2-5" value="" style="rounded=0;whiteSpace=wrap;html=1;" vertex="1" parent="1">
          <mxGeometry x="315.5" y="110" width="196" height="20" as="geometry" />
        </mxCell>
        <mxCell id="zZVvMI4gv1tgmaWDn2k2-6" value="SIM" style="rounded=0;whiteSpace=wrap;html=1;fillColor=#e51400;fontColor=#ffffff;strokeColor=#B20000;" vertex="1" parent="1">
          <mxGeometry x="531.5" y="110" width="180" height="20" as="geometry" />
        </mxCell>
        <mxCell id="zZVvMI4gv1tgmaWDn2k2-7" value="" style="rounded=0;whiteSpace=wrap;html=1;" vertex="1" parent="1">
          <mxGeometry x="731.5" y="110" width="180" height="20" as="geometry" />
        </mxCell>
        <mxCell id="zZVvMI4gv1tgmaWDn2k2-8" value="ALTO" style="rounded=0;whiteSpace=wrap;html=1;fillColor=#e51400;fontColor=#ffffff;strokeColor=#B20000;" vertex="1" parent="1">
          <mxGeometry x="931.5" y="110" width="220" height="20" as="geometry" />
        </mxCell>
        <mxCell id="zZVvMI4gv1tgmaWDn2k2-9" value="" style="rounded=0;whiteSpace=wrap;html=1;" vertex="1" parent="1">
          <mxGeometry x="121.5" y="140" width="180" height="20" as="geometry" />
        </mxCell>
        <mxCell id="zZVvMI4gv1tgmaWDn2k2-10" value="" style="rounded=0;whiteSpace=wrap;html=1;" vertex="1" parent="1">
          <mxGeometry x="315.5" y="140" width="196" height="20" as="geometry" />
        </mxCell>
        <mxCell id="zZVvMI4gv1tgmaWDn2k2-11" value="" style="rounded=0;whiteSpace=wrap;html=1;" vertex="1" parent="1">
          <mxGeometry x="531.5" y="140" width="180" height="20" as="geometry" />
        </mxCell>
        <mxCell id="zZVvMI4gv1tgmaWDn2k2-12" value="" style="rounded=0;whiteSpace=wrap;html=1;" vertex="1" parent="1">
          <mxGeometry x="731.5" y="140" width="180" height="20" as="geometry" />
        </mxCell>
        <mxCell id="zZVvMI4gv1tgmaWDn2k2-13" value="" style="rounded=0;whiteSpace=wrap;html=1;" vertex="1" parent="1">
          <mxGeometry x="931.5" y="140" width="220" height="20" as="geometry" />
        </mxCell>
        <mxCell id="zZVvMI4gv1tgmaWDn2k2-19" value="" style="rounded=0;whiteSpace=wrap;html=1;" vertex="1" parent="1">
          <mxGeometry x="120" y="10" width="180" height="20" as="geometry" />
        </mxCell>
        <mxCell id="zZVvMI4gv1tgmaWDn2k2-24" value="1.2-Pos Contratação - Aporte previdência" style="rounded=0;whiteSpace=wrap;html=1;fillColor=#f0a30a;fontColor=#000000;strokeColor=#BD7000;" vertex="1" parent="1">
          <mxGeometry x="-278.5" y="80" width="380" height="20" as="geometry" />
        </mxCell>
        <mxCell id="zZVvMI4gv1tgmaWDn2k2-26" value="valor &amp;lt;= 10K -&amp;gt; risco baixo" style="rounded=0;whiteSpace=wrap;html=1;fillColor=#cdeb8b;strokeColor=#36393d;" vertex="1" parent="1">
          <mxGeometry x="121.5" y="80" width="180" height="20" as="geometry" />
        </mxCell>
        <mxCell id="zZVvMI4gv1tgmaWDn2k2-27" value="10k &amp;lt; valor &amp;lt;= 20K -&amp;gt; risco medio" style="rounded=0;whiteSpace=wrap;html=1;fillColor=#ffff88;strokeColor=#36393d;" vertex="1" parent="1">
          <mxGeometry x="311.5" y="80" width="200" height="20" as="geometry" />
        </mxCell>
        <mxCell id="zZVvMI4gv1tgmaWDn2k2-28" value="valor &amp;lt;= 50K -&amp;gt; risco alto" style="rounded=0;whiteSpace=wrap;html=1;fillColor=#e51400;fontColor=#ffffff;strokeColor=#B20000;" vertex="1" parent="1">
          <mxGeometry x="531.5" y="80" width="180" height="20" as="geometry" />
        </mxCell>
        <mxCell id="zZVvMI4gv1tgmaWDn2k2-29" value="50K -&amp;gt; risco critico" style="rounded=0;whiteSpace=wrap;html=1;fillColor=#6a00ff;fontColor=#ffffff;strokeColor=#3700CC;" vertex="1" parent="1">
          <mxGeometry x="731.5" y="80" width="180" height="20" as="geometry" />
        </mxCell>
        <mxCell id="zZVvMI4gv1tgmaWDn2k2-30" value="Risco Final com base na Transação" style="rounded=0;whiteSpace=wrap;html=1;fillColor=#ffcd28;gradientColor=#ffa500;strokeColor=#d79b00;" vertex="1" parent="1">
          <mxGeometry x="931.5" y="80" width="220" height="20" as="geometry" />
        </mxCell>
        <mxCell id="zZVvMI4gv1tgmaWDn2k2-31" value="1.3.1-Contribuição previdência-&amp;gt;PF" style="rounded=0;whiteSpace=wrap;html=1;" vertex="1" parent="1">
          <mxGeometry x="-278.5" y="210" width="380" height="20" as="geometry" />
        </mxCell>
        <mxCell id="zZVvMI4gv1tgmaWDn2k2-32" value="1.3.2-Contribuição previdência-&amp;gt;PJ" style="rounded=0;whiteSpace=wrap;html=1;" vertex="1" parent="1">
          <mxGeometry x="-278.5" y="240" width="380" height="20" as="geometry" />
        </mxCell>
        <mxCell id="zZVvMI4gv1tgmaWDn2k2-33" value="" style="rounded=0;whiteSpace=wrap;html=1;" vertex="1" parent="1">
          <mxGeometry x="121.5" y="210" width="180" height="20" as="geometry" />
        </mxCell>
        <mxCell id="zZVvMI4gv1tgmaWDn2k2-34" value="" style="rounded=0;whiteSpace=wrap;html=1;" vertex="1" parent="1">
          <mxGeometry x="315.5" y="210" width="196" height="20" as="geometry" />
        </mxCell>
        <mxCell id="zZVvMI4gv1tgmaWDn2k2-35" value="SIM" style="rounded=0;whiteSpace=wrap;html=1;fillColor=#e51400;fontColor=#ffffff;strokeColor=#B20000;" vertex="1" parent="1">
          <mxGeometry x="531.5" y="210" width="180" height="20" as="geometry" />
        </mxCell>
        <mxCell id="zZVvMI4gv1tgmaWDn2k2-36" value="" style="rounded=0;whiteSpace=wrap;html=1;" vertex="1" parent="1">
          <mxGeometry x="731.5" y="210" width="180" height="20" as="geometry" />
        </mxCell>
        <mxCell id="zZVvMI4gv1tgmaWDn2k2-37" value="ALTO" style="rounded=0;whiteSpace=wrap;html=1;fillColor=#e51400;fontColor=#ffffff;strokeColor=#B20000;" vertex="1" parent="1">
          <mxGeometry x="931.5" y="210" width="220" height="20" as="geometry" />
        </mxCell>
        <mxCell id="zZVvMI4gv1tgmaWDn2k2-38" value="" style="rounded=0;whiteSpace=wrap;html=1;" vertex="1" parent="1">
          <mxGeometry x="121.5" y="240" width="180" height="20" as="geometry" />
        </mxCell>
        <mxCell id="zZVvMI4gv1tgmaWDn2k2-39" value="" style="rounded=0;whiteSpace=wrap;html=1;" vertex="1" parent="1">
          <mxGeometry x="315.5" y="240" width="196" height="20" as="geometry" />
        </mxCell>
        <mxCell id="zZVvMI4gv1tgmaWDn2k2-40" value="" style="rounded=0;whiteSpace=wrap;html=1;" vertex="1" parent="1">
          <mxGeometry x="531.5" y="240" width="180" height="20" as="geometry" />
        </mxCell>
        <mxCell id="zZVvMI4gv1tgmaWDn2k2-41" value="" style="rounded=0;whiteSpace=wrap;html=1;" vertex="1" parent="1">
          <mxGeometry x="731.5" y="240" width="180" height="20" as="geometry" />
        </mxCell>
        <mxCell id="zZVvMI4gv1tgmaWDn2k2-42" value="" style="rounded=0;whiteSpace=wrap;html=1;" vertex="1" parent="1">
          <mxGeometry x="931.5" y="240" width="220" height="20" as="geometry" />
        </mxCell>
        <mxCell id="zZVvMI4gv1tgmaWDn2k2-43" value="1.3-Pós Contratação - Contribuição Previdência" style="rounded=0;whiteSpace=wrap;html=1;fillColor=#f0a30a;fontColor=#000000;strokeColor=#BD7000;" vertex="1" parent="1">
          <mxGeometry x="-278.5" y="180" width="380" height="20" as="geometry" />
        </mxCell>
        <mxCell id="zZVvMI4gv1tgmaWDn2k2-44" value="valor &amp;lt;= 10K -&amp;gt; risco baixo" style="rounded=0;whiteSpace=wrap;html=1;fillColor=#cdeb8b;strokeColor=#36393d;" vertex="1" parent="1">
          <mxGeometry x="121.5" y="180" width="180" height="20" as="geometry" />
        </mxCell>
        <mxCell id="zZVvMI4gv1tgmaWDn2k2-45" value="10k &amp;lt; valor &amp;lt;= 20K -&amp;gt; risco medio" style="rounded=0;whiteSpace=wrap;html=1;fillColor=#ffff88;strokeColor=#36393d;" vertex="1" parent="1">
          <mxGeometry x="311.5" y="180" width="200" height="20" as="geometry" />
        </mxCell>
        <mxCell id="zZVvMI4gv1tgmaWDn2k2-46" value="valor &amp;lt;= 50K -&amp;gt; risco alto" style="rounded=0;whiteSpace=wrap;html=1;fillColor=#e51400;fontColor=#ffffff;strokeColor=#B20000;" vertex="1" parent="1">
          <mxGeometry x="531.5" y="180" width="180" height="20" as="geometry" />
        </mxCell>
        <mxCell id="zZVvMI4gv1tgmaWDn2k2-47" value="50K -&amp;gt; risco critico" style="rounded=0;whiteSpace=wrap;html=1;fillColor=#6a00ff;fontColor=#ffffff;strokeColor=#3700CC;" vertex="1" parent="1">
          <mxGeometry x="731.5" y="180" width="180" height="20" as="geometry" />
        </mxCell>
        <mxCell id="zZVvMI4gv1tgmaWDn2k2-48" value="Risco Final com base na Transação" style="rounded=0;whiteSpace=wrap;html=1;fillColor=#ffcd28;gradientColor=#ffa500;strokeColor=#d79b00;" vertex="1" parent="1">
          <mxGeometry x="931.5" y="180" width="220" height="20" as="geometry" />
        </mxCell>
        <mxCell id="zZVvMI4gv1tgmaWDn2k2-49" value="" style="endArrow=none;html=1;rounded=0;fillColor=#e6d0de;gradientColor=#d5739d;strokeColor=#996185;" edge="1" parent="1">
          <mxGeometry width="50" height="50" relative="1" as="geometry">
            <mxPoint x="-280" y="70" as="sourcePoint" />
            <mxPoint x="1150" y="70" as="targetPoint" />
          </mxGeometry>
        </mxCell>
        <mxCell id="zZVvMI4gv1tgmaWDn2k2-50" value="" style="endArrow=none;html=1;rounded=0;fillColor=#e6d0de;gradientColor=#d5739d;strokeColor=#996185;" edge="1" parent="1">
          <mxGeometry width="50" height="50" relative="1" as="geometry">
            <mxPoint x="-281.5" y="170" as="sourcePoint" />
            <mxPoint x="1148.5" y="170" as="targetPoint" />
          </mxGeometry>
        </mxCell>
        <mxCell id="zZVvMI4gv1tgmaWDn2k2-51" value="1.4.1-Resgate Previdência-&amp;gt;PF" style="rounded=0;whiteSpace=wrap;html=1;" vertex="1" parent="1">
          <mxGeometry x="-278.5" y="310" width="380" height="20" as="geometry" />
        </mxCell>
        <mxCell id="zZVvMI4gv1tgmaWDn2k2-52" value="1.4.2-Resgate Previdência-&amp;gt;No exterior PF" style="rounded=0;whiteSpace=wrap;html=1;" vertex="1" parent="1">
          <mxGeometry x="-278.5" y="340" width="380" height="20" as="geometry" />
        </mxCell>
        <mxCell id="zZVvMI4gv1tgmaWDn2k2-53" value="" style="rounded=0;whiteSpace=wrap;html=1;" vertex="1" parent="1">
          <mxGeometry x="121.5" y="310" width="180" height="20" as="geometry" />
        </mxCell>
        <mxCell id="zZVvMI4gv1tgmaWDn2k2-54" value="" style="rounded=0;whiteSpace=wrap;html=1;" vertex="1" parent="1">
          <mxGeometry x="315.5" y="310" width="196" height="20" as="geometry" />
        </mxCell>
        <mxCell id="zZVvMI4gv1tgmaWDn2k2-55" value="SIM" style="rounded=0;whiteSpace=wrap;html=1;fillColor=#e51400;fontColor=#ffffff;strokeColor=#B20000;" vertex="1" parent="1">
          <mxGeometry x="531.5" y="310" width="180" height="20" as="geometry" />
        </mxCell>
        <mxCell id="zZVvMI4gv1tgmaWDn2k2-56" value="" style="rounded=0;whiteSpace=wrap;html=1;" vertex="1" parent="1">
          <mxGeometry x="731.5" y="310" width="180" height="20" as="geometry" />
        </mxCell>
        <mxCell id="zZVvMI4gv1tgmaWDn2k2-57" value="ALTO" style="rounded=0;whiteSpace=wrap;html=1;fillColor=#e51400;fontColor=#ffffff;strokeColor=#B20000;" vertex="1" parent="1">
          <mxGeometry x="931.5" y="310" width="220" height="20" as="geometry" />
        </mxCell>
        <mxCell id="zZVvMI4gv1tgmaWDn2k2-58" value="" style="rounded=0;whiteSpace=wrap;html=1;" vertex="1" parent="1">
          <mxGeometry x="121.5" y="340" width="180" height="20" as="geometry" />
        </mxCell>
        <mxCell id="zZVvMI4gv1tgmaWDn2k2-59" value="" style="rounded=0;whiteSpace=wrap;html=1;" vertex="1" parent="1">
          <mxGeometry x="315.5" y="340" width="196" height="20" as="geometry" />
        </mxCell>
        <mxCell id="zZVvMI4gv1tgmaWDn2k2-60" value="" style="rounded=0;whiteSpace=wrap;html=1;" vertex="1" parent="1">
          <mxGeometry x="531.5" y="340" width="180" height="20" as="geometry" />
        </mxCell>
        <mxCell id="zZVvMI4gv1tgmaWDn2k2-61" value="" style="rounded=0;whiteSpace=wrap;html=1;" vertex="1" parent="1">
          <mxGeometry x="731.5" y="340" width="180" height="20" as="geometry" />
        </mxCell>
        <mxCell id="zZVvMI4gv1tgmaWDn2k2-62" value="" style="rounded=0;whiteSpace=wrap;html=1;" vertex="1" parent="1">
          <mxGeometry x="931.5" y="340" width="220" height="20" as="geometry" />
        </mxCell>
        <mxCell id="zZVvMI4gv1tgmaWDn2k2-63" value="1.4-Pós Contratação - Resgate Previdência" style="rounded=0;whiteSpace=wrap;html=1;fillColor=#f0a30a;fontColor=#000000;strokeColor=#BD7000;" vertex="1" parent="1">
          <mxGeometry x="-278.5" y="280" width="380" height="20" as="geometry" />
        </mxCell>
        <mxCell id="zZVvMI4gv1tgmaWDn2k2-64" value="valor &amp;lt;= 10K -&amp;gt; risco baixo" style="rounded=0;whiteSpace=wrap;html=1;fillColor=#cdeb8b;strokeColor=#36393d;" vertex="1" parent="1">
          <mxGeometry x="121.5" y="280" width="180" height="20" as="geometry" />
        </mxCell>
        <mxCell id="zZVvMI4gv1tgmaWDn2k2-65" value="10k &amp;lt; valor &amp;lt;= 20K -&amp;gt; risco medio" style="rounded=0;whiteSpace=wrap;html=1;fillColor=#ffff88;strokeColor=#36393d;" vertex="1" parent="1">
          <mxGeometry x="311.5" y="280" width="200" height="20" as="geometry" />
        </mxCell>
        <mxCell id="zZVvMI4gv1tgmaWDn2k2-66" value="valor &amp;lt;= 50K -&amp;gt; risco alto" style="rounded=0;whiteSpace=wrap;html=1;fillColor=#e51400;fontColor=#ffffff;strokeColor=#B20000;" vertex="1" parent="1">
          <mxGeometry x="531.5" y="280" width="180" height="20" as="geometry" />
        </mxCell>
        <mxCell id="zZVvMI4gv1tgmaWDn2k2-67" value="50K -&amp;gt; risco critico" style="rounded=0;whiteSpace=wrap;html=1;fillColor=#6a00ff;fontColor=#ffffff;strokeColor=#3700CC;" vertex="1" parent="1">
          <mxGeometry x="731.5" y="280" width="180" height="20" as="geometry" />
        </mxCell>
        <mxCell id="zZVvMI4gv1tgmaWDn2k2-68" value="Risco Final com base na Transação" style="rounded=0;whiteSpace=wrap;html=1;fillColor=#ffcd28;gradientColor=#ffa500;strokeColor=#d79b00;" vertex="1" parent="1">
          <mxGeometry x="931.5" y="280" width="220" height="20" as="geometry" />
        </mxCell>
        <mxCell id="zZVvMI4gv1tgmaWDn2k2-70" value="" style="endArrow=none;html=1;rounded=0;fillColor=#e6d0de;gradientColor=#d5739d;strokeColor=#996185;" edge="1" parent="1">
          <mxGeometry width="50" height="50" relative="1" as="geometry">
            <mxPoint x="-275.5" y="270" as="sourcePoint" />
            <mxPoint x="1154.5" y="270" as="targetPoint" />
          </mxGeometry>
        </mxCell>
        <mxCell id="zZVvMI4gv1tgmaWDn2k2-71" value="" style="endArrow=none;html=1;rounded=0;fillColor=#e6d0de;gradientColor=#d5739d;strokeColor=#996185;" edge="1" parent="1">
          <mxGeometry width="50" height="50" relative="1" as="geometry">
            <mxPoint x="-278.5" y="370" as="sourcePoint" />
            <mxPoint x="1151.5" y="370" as="targetPoint" />
          </mxGeometry>
        </mxCell>
        <mxCell id="4VON6w2d971kWTQR0FeI-2" value="2 - Seguro (Vida)" style="rounded=0;whiteSpace=wrap;html=1;fillColor=#f5f5f5;strokeColor=#666666;gradientColor=#b3b3b3;" vertex="1" parent="1">
          <mxGeometry x="-267" y="480" width="1430" height="20" as="geometry" />
        </mxCell>
        <mxCell id="4VON6w2d971kWTQR0FeI-3" value="2.1.1-Contratação seguro Vida-&amp;gt; PF" style="rounded=0;whiteSpace=wrap;html=1;" vertex="1" parent="1">
          <mxGeometry x="-267" y="540" width="380" height="20" as="geometry" />
        </mxCell>
        <mxCell id="4VON6w2d971kWTQR0FeI-4" value="2.1.2-Contratação seguro Vida-&amp;gt; PJ" style="rounded=0;whiteSpace=wrap;html=1;" vertex="1" parent="1">
          <mxGeometry x="-267" y="570" width="380" height="20" as="geometry" />
        </mxCell>
        <mxCell id="4VON6w2d971kWTQR0FeI-5" value="2.2.1-Alteração de beneficiário com sinistro em aberto (PF ou PJ ?)" style="rounded=0;whiteSpace=wrap;html=1;" vertex="1" parent="1">
          <mxGeometry x="-267" y="630" width="380" height="20" as="geometry" />
        </mxCell>
        <mxCell id="4VON6w2d971kWTQR0FeI-6" value="valor &amp;lt;= 10K -&amp;gt; risco baixo" style="rounded=0;whiteSpace=wrap;html=1;fillColor=#cdeb8b;strokeColor=#36393d;" vertex="1" parent="1">
          <mxGeometry x="133" y="510" width="180" height="20" as="geometry" />
        </mxCell>
        <mxCell id="4VON6w2d971kWTQR0FeI-7" value="10k &amp;lt; valor &amp;lt;= 20K -&amp;gt; risco medio" style="rounded=0;whiteSpace=wrap;html=1;fillColor=#ffff88;strokeColor=#36393d;" vertex="1" parent="1">
          <mxGeometry x="323" y="510" width="200" height="20" as="geometry" />
        </mxCell>
        <mxCell id="4VON6w2d971kWTQR0FeI-8" value="valor &amp;lt;= 50K -&amp;gt; risco alto" style="rounded=0;whiteSpace=wrap;html=1;fillColor=#e51400;fontColor=#ffffff;strokeColor=#B20000;" vertex="1" parent="1">
          <mxGeometry x="543" y="510" width="180" height="20" as="geometry" />
        </mxCell>
        <mxCell id="4VON6w2d971kWTQR0FeI-9" value="50K -&amp;gt; risco critico" style="rounded=0;whiteSpace=wrap;html=1;fillColor=#6a00ff;fontColor=#ffffff;strokeColor=#3700CC;" vertex="1" parent="1">
          <mxGeometry x="743" y="510" width="180" height="20" as="geometry" />
        </mxCell>
        <mxCell id="4VON6w2d971kWTQR0FeI-10" value="2.1-Contratação seguro Vida" style="rounded=0;whiteSpace=wrap;html=1;fillColor=#f5f5f5;strokeColor=#666666;gradientColor=#b3b3b3;" vertex="1" parent="1">
          <mxGeometry x="-267" y="510" width="380" height="20" as="geometry" />
        </mxCell>
        <mxCell id="4VON6w2d971kWTQR0FeI-11" value="Risco Final com base na Transação" style="rounded=0;whiteSpace=wrap;html=1;fillColor=#ffcd28;gradientColor=#ffa500;strokeColor=#d79b00;" vertex="1" parent="1">
          <mxGeometry x="943" y="510" width="220" height="20" as="geometry" />
        </mxCell>
        <mxCell id="4VON6w2d971kWTQR0FeI-12" value="" style="rounded=0;whiteSpace=wrap;html=1;" vertex="1" parent="1">
          <mxGeometry x="327" y="540" width="196" height="20" as="geometry" />
        </mxCell>
        <mxCell id="4VON6w2d971kWTQR0FeI-13" value="SIM" style="rounded=0;whiteSpace=wrap;html=1;fillColor=#e51400;fontColor=#ffffff;strokeColor=#B20000;" vertex="1" parent="1">
          <mxGeometry x="543" y="540" width="180" height="20" as="geometry" />
        </mxCell>
        <mxCell id="4VON6w2d971kWTQR0FeI-14" value="" style="rounded=0;whiteSpace=wrap;html=1;" vertex="1" parent="1">
          <mxGeometry x="743" y="540" width="180" height="20" as="geometry" />
        </mxCell>
        <mxCell id="4VON6w2d971kWTQR0FeI-15" value="ALTO" style="rounded=0;whiteSpace=wrap;html=1;fillColor=#e51400;fontColor=#ffffff;strokeColor=#B20000;" vertex="1" parent="1">
          <mxGeometry x="943" y="540" width="220" height="20" as="geometry" />
        </mxCell>
        <mxCell id="4VON6w2d971kWTQR0FeI-16" value="" style="rounded=0;whiteSpace=wrap;html=1;" vertex="1" parent="1">
          <mxGeometry x="133" y="570" width="180" height="20" as="geometry" />
        </mxCell>
        <mxCell id="4VON6w2d971kWTQR0FeI-17" value="" style="rounded=0;whiteSpace=wrap;html=1;" vertex="1" parent="1">
          <mxGeometry x="327" y="570" width="196" height="20" as="geometry" />
        </mxCell>
        <mxCell id="4VON6w2d971kWTQR0FeI-18" value="" style="rounded=0;whiteSpace=wrap;html=1;" vertex="1" parent="1">
          <mxGeometry x="543" y="570" width="180" height="20" as="geometry" />
        </mxCell>
        <mxCell id="4VON6w2d971kWTQR0FeI-19" value="" style="rounded=0;whiteSpace=wrap;html=1;" vertex="1" parent="1">
          <mxGeometry x="743" y="570" width="180" height="20" as="geometry" />
        </mxCell>
        <mxCell id="4VON6w2d971kWTQR0FeI-20" value="" style="rounded=0;whiteSpace=wrap;html=1;" vertex="1" parent="1">
          <mxGeometry x="943" y="570" width="220" height="20" as="geometry" />
        </mxCell>
        <mxCell id="4VON6w2d971kWTQR0FeI-21" value="" style="rounded=0;whiteSpace=wrap;html=1;" vertex="1" parent="1">
          <mxGeometry x="133" y="630" width="180" height="20" as="geometry" />
        </mxCell>
        <mxCell id="4VON6w2d971kWTQR0FeI-22" value="" style="rounded=0;whiteSpace=wrap;html=1;" vertex="1" parent="1">
          <mxGeometry x="327" y="630" width="196" height="20" as="geometry" />
        </mxCell>
        <mxCell id="4VON6w2d971kWTQR0FeI-23" value="" style="rounded=0;whiteSpace=wrap;html=1;" vertex="1" parent="1">
          <mxGeometry x="543" y="630" width="180" height="20" as="geometry" />
        </mxCell>
        <mxCell id="4VON6w2d971kWTQR0FeI-24" value="" style="rounded=0;whiteSpace=wrap;html=1;" vertex="1" parent="1">
          <mxGeometry x="743" y="630" width="180" height="20" as="geometry" />
        </mxCell>
        <mxCell id="4VON6w2d971kWTQR0FeI-25" value="" style="rounded=0;whiteSpace=wrap;html=1;" vertex="1" parent="1">
          <mxGeometry x="943" y="630" width="220" height="20" as="geometry" />
        </mxCell>
        <mxCell id="4VON6w2d971kWTQR0FeI-26" value="" style="rounded=0;whiteSpace=wrap;html=1;" vertex="1" parent="1">
          <mxGeometry x="133" y="540" width="180" height="20" as="geometry" />
        </mxCell>
        <mxCell id="4VON6w2d971kWTQR0FeI-27" value="2.2.2-Restituição de prêmio PF" style="rounded=0;whiteSpace=wrap;html=1;" vertex="1" parent="1">
          <mxGeometry x="-267" y="660" width="380" height="20" as="geometry" />
        </mxCell>
        <mxCell id="4VON6w2d971kWTQR0FeI-28" value="2.2.3-Restituição de prêmio PJ" style="rounded=0;whiteSpace=wrap;html=1;" vertex="1" parent="1">
          <mxGeometry x="-267" y="690" width="380" height="20" as="geometry" />
        </mxCell>
        <mxCell id="4VON6w2d971kWTQR0FeI-29" value="2.2.4-Liquidação de sinistro (PF ou PJ ?)" style="rounded=0;whiteSpace=wrap;html=1;" vertex="1" parent="1">
          <mxGeometry x="-267" y="720" width="380" height="20" as="geometry" />
        </mxCell>
        <mxCell id="4VON6w2d971kWTQR0FeI-30" value="" style="rounded=0;whiteSpace=wrap;html=1;" vertex="1" parent="1">
          <mxGeometry x="327" y="660" width="196" height="20" as="geometry" />
        </mxCell>
        <mxCell id="4VON6w2d971kWTQR0FeI-31" value="SIM" style="rounded=0;whiteSpace=wrap;html=1;fillColor=#e51400;fontColor=#ffffff;strokeColor=#B20000;" vertex="1" parent="1">
          <mxGeometry x="543" y="660" width="180" height="20" as="geometry" />
        </mxCell>
        <mxCell id="4VON6w2d971kWTQR0FeI-32" value="" style="rounded=0;whiteSpace=wrap;html=1;" vertex="1" parent="1">
          <mxGeometry x="743" y="660" width="180" height="20" as="geometry" />
        </mxCell>
        <mxCell id="4VON6w2d971kWTQR0FeI-33" value="ALTO" style="rounded=0;whiteSpace=wrap;html=1;fillColor=#e51400;fontColor=#ffffff;strokeColor=#B20000;" vertex="1" parent="1">
          <mxGeometry x="943" y="660" width="220" height="20" as="geometry" />
        </mxCell>
        <mxCell id="4VON6w2d971kWTQR0FeI-34" value="" style="rounded=0;whiteSpace=wrap;html=1;" vertex="1" parent="1">
          <mxGeometry x="133" y="690" width="180" height="20" as="geometry" />
        </mxCell>
        <mxCell id="4VON6w2d971kWTQR0FeI-35" value="" style="rounded=0;whiteSpace=wrap;html=1;" vertex="1" parent="1">
          <mxGeometry x="327" y="690" width="196" height="20" as="geometry" />
        </mxCell>
        <mxCell id="4VON6w2d971kWTQR0FeI-36" value="" style="rounded=0;whiteSpace=wrap;html=1;" vertex="1" parent="1">
          <mxGeometry x="543" y="690" width="180" height="20" as="geometry" />
        </mxCell>
        <mxCell id="4VON6w2d971kWTQR0FeI-37" value="" style="rounded=0;whiteSpace=wrap;html=1;" vertex="1" parent="1">
          <mxGeometry x="743" y="690" width="180" height="20" as="geometry" />
        </mxCell>
        <mxCell id="4VON6w2d971kWTQR0FeI-38" value="" style="rounded=0;whiteSpace=wrap;html=1;" vertex="1" parent="1">
          <mxGeometry x="943" y="690" width="220" height="20" as="geometry" />
        </mxCell>
        <mxCell id="4VON6w2d971kWTQR0FeI-39" value="" style="rounded=0;whiteSpace=wrap;html=1;" vertex="1" parent="1">
          <mxGeometry x="133" y="720" width="180" height="20" as="geometry" />
        </mxCell>
        <mxCell id="4VON6w2d971kWTQR0FeI-40" value="" style="rounded=0;whiteSpace=wrap;html=1;" vertex="1" parent="1">
          <mxGeometry x="327" y="720" width="196" height="20" as="geometry" />
        </mxCell>
        <mxCell id="4VON6w2d971kWTQR0FeI-41" value="" style="rounded=0;whiteSpace=wrap;html=1;" vertex="1" parent="1">
          <mxGeometry x="543" y="720" width="180" height="20" as="geometry" />
        </mxCell>
        <mxCell id="4VON6w2d971kWTQR0FeI-42" value="" style="rounded=0;whiteSpace=wrap;html=1;" vertex="1" parent="1">
          <mxGeometry x="743" y="720" width="180" height="20" as="geometry" />
        </mxCell>
        <mxCell id="4VON6w2d971kWTQR0FeI-43" value="" style="rounded=0;whiteSpace=wrap;html=1;" vertex="1" parent="1">
          <mxGeometry x="943" y="720" width="220" height="20" as="geometry" />
        </mxCell>
        <mxCell id="4VON6w2d971kWTQR0FeI-44" value="" style="rounded=0;whiteSpace=wrap;html=1;" vertex="1" parent="1">
          <mxGeometry x="133" y="660" width="180" height="20" as="geometry" />
        </mxCell>
        <mxCell id="4VON6w2d971kWTQR0FeI-45" value="" style="endArrow=none;html=1;rounded=0;fillColor=#e6d0de;gradientColor=#d5739d;strokeColor=#996185;" edge="1" parent="1">
          <mxGeometry width="50" height="50" relative="1" as="geometry">
            <mxPoint x="-270" y="750" as="sourcePoint" />
            <mxPoint x="1160" y="750" as="targetPoint" />
          </mxGeometry>
        </mxCell>
        <mxCell id="4VON6w2d971kWTQR0FeI-46" value="3 - Seguro (Prestamista)" style="rounded=0;whiteSpace=wrap;html=1;fillColor=#dae8fc;strokeColor=#6c8ebf;gradientColor=#7ea6e0;" vertex="1" parent="1">
          <mxGeometry x="-267" y="760" width="1430" height="20" as="geometry" />
        </mxCell>
        <mxCell id="4VON6w2d971kWTQR0FeI-47" value="valor &amp;lt;= 10K -&amp;gt; risco baixo" style="rounded=0;whiteSpace=wrap;html=1;fillColor=#cdeb8b;strokeColor=#36393d;" vertex="1" parent="1">
          <mxGeometry x="133" y="790" width="180" height="20" as="geometry" />
        </mxCell>
        <mxCell id="4VON6w2d971kWTQR0FeI-48" value="10k &amp;lt; valor &amp;lt;= 20K -&amp;gt; risco medio" style="rounded=0;whiteSpace=wrap;html=1;fillColor=#ffff88;strokeColor=#36393d;" vertex="1" parent="1">
          <mxGeometry x="323" y="790" width="200" height="20" as="geometry" />
        </mxCell>
        <mxCell id="4VON6w2d971kWTQR0FeI-49" value="valor &amp;lt;= 50K -&amp;gt; risco alto" style="rounded=0;whiteSpace=wrap;html=1;fillColor=#e51400;fontColor=#ffffff;strokeColor=#B20000;" vertex="1" parent="1">
          <mxGeometry x="543" y="790" width="180" height="20" as="geometry" />
        </mxCell>
        <mxCell id="4VON6w2d971kWTQR0FeI-50" value="50K -&amp;gt; risco critico" style="rounded=0;whiteSpace=wrap;html=1;fillColor=#6a00ff;fontColor=#ffffff;strokeColor=#3700CC;" vertex="1" parent="1">
          <mxGeometry x="743" y="790" width="180" height="20" as="geometry" />
        </mxCell>
        <mxCell id="4VON6w2d971kWTQR0FeI-51" value="3.1-Contratação seguro Prestamista" style="rounded=0;whiteSpace=wrap;html=1;fillColor=#dae8fc;strokeColor=#6c8ebf;gradientColor=#7ea6e0;" vertex="1" parent="1">
          <mxGeometry x="-267" y="790" width="380" height="20" as="geometry" />
        </mxCell>
        <mxCell id="4VON6w2d971kWTQR0FeI-52" value="Risco Final com base na Transação" style="rounded=0;whiteSpace=wrap;html=1;fillColor=#ffcd28;gradientColor=#ffa500;strokeColor=#d79b00;" vertex="1" parent="1">
          <mxGeometry x="943" y="790" width="220" height="20" as="geometry" />
        </mxCell>
        <mxCell id="4VON6w2d971kWTQR0FeI-53" value="3.1.1-Contratação seguro Vida-&amp;gt; PF" style="rounded=0;whiteSpace=wrap;html=1;" vertex="1" parent="1">
          <mxGeometry x="-267" y="830" width="380" height="20" as="geometry" />
        </mxCell>
        <mxCell id="4VON6w2d971kWTQR0FeI-54" value="3.1.2-Contratação seguro Vida-&amp;gt; PJ" style="rounded=0;whiteSpace=wrap;html=1;" vertex="1" parent="1">
          <mxGeometry x="-267" y="860" width="380" height="20" as="geometry" />
        </mxCell>
        <mxCell id="4VON6w2d971kWTQR0FeI-56" value="" style="rounded=0;whiteSpace=wrap;html=1;" vertex="1" parent="1">
          <mxGeometry x="327" y="830" width="196" height="20" as="geometry" />
        </mxCell>
        <mxCell id="4VON6w2d971kWTQR0FeI-57" value="SIM" style="rounded=0;whiteSpace=wrap;html=1;fillColor=#e51400;fontColor=#ffffff;strokeColor=#B20000;" vertex="1" parent="1">
          <mxGeometry x="543" y="830" width="180" height="20" as="geometry" />
        </mxCell>
        <mxCell id="4VON6w2d971kWTQR0FeI-58" value="" style="rounded=0;whiteSpace=wrap;html=1;" vertex="1" parent="1">
          <mxGeometry x="743" y="830" width="180" height="20" as="geometry" />
        </mxCell>
        <mxCell id="4VON6w2d971kWTQR0FeI-59" value="ALTO" style="rounded=0;whiteSpace=wrap;html=1;fillColor=#e51400;fontColor=#ffffff;strokeColor=#B20000;" vertex="1" parent="1">
          <mxGeometry x="943" y="830" width="220" height="20" as="geometry" />
        </mxCell>
        <mxCell id="4VON6w2d971kWTQR0FeI-60" value="" style="rounded=0;whiteSpace=wrap;html=1;" vertex="1" parent="1">
          <mxGeometry x="133" y="860" width="180" height="20" as="geometry" />
        </mxCell>
        <mxCell id="4VON6w2d971kWTQR0FeI-61" value="" style="rounded=0;whiteSpace=wrap;html=1;" vertex="1" parent="1">
          <mxGeometry x="327" y="860" width="196" height="20" as="geometry" />
        </mxCell>
        <mxCell id="4VON6w2d971kWTQR0FeI-62" value="" style="rounded=0;whiteSpace=wrap;html=1;" vertex="1" parent="1">
          <mxGeometry x="543" y="860" width="180" height="20" as="geometry" />
        </mxCell>
        <mxCell id="4VON6w2d971kWTQR0FeI-63" value="" style="rounded=0;whiteSpace=wrap;html=1;" vertex="1" parent="1">
          <mxGeometry x="743" y="860" width="180" height="20" as="geometry" />
        </mxCell>
        <mxCell id="4VON6w2d971kWTQR0FeI-64" value="" style="rounded=0;whiteSpace=wrap;html=1;" vertex="1" parent="1">
          <mxGeometry x="943" y="860" width="220" height="20" as="geometry" />
        </mxCell>
        <mxCell id="4VON6w2d971kWTQR0FeI-70" value="" style="rounded=0;whiteSpace=wrap;html=1;" vertex="1" parent="1">
          <mxGeometry x="133" y="830" width="180" height="20" as="geometry" />
        </mxCell>
        <mxCell id="4VON6w2d971kWTQR0FeI-71" value="3.2.1-Restituição de prêmio PF" style="rounded=0;whiteSpace=wrap;html=1;" vertex="1" parent="1">
          <mxGeometry x="-267" y="920" width="380" height="20" as="geometry" />
        </mxCell>
        <mxCell id="4VON6w2d971kWTQR0FeI-72" value="3.2.2-Restituição de prêmio PJ" style="rounded=0;whiteSpace=wrap;html=1;" vertex="1" parent="1">
          <mxGeometry x="-267" y="950" width="380" height="20" as="geometry" />
        </mxCell>
        <mxCell id="4VON6w2d971kWTQR0FeI-73" value="3.2.3-Liquidação de sinistro PF" style="rounded=0;whiteSpace=wrap;html=1;" vertex="1" parent="1">
          <mxGeometry x="-267" y="980" width="380" height="20" as="geometry" />
        </mxCell>
        <mxCell id="4VON6w2d971kWTQR0FeI-74" value="" style="rounded=0;whiteSpace=wrap;html=1;" vertex="1" parent="1">
          <mxGeometry x="327" y="920" width="196" height="20" as="geometry" />
        </mxCell>
        <mxCell id="4VON6w2d971kWTQR0FeI-75" value="SIM" style="rounded=0;whiteSpace=wrap;html=1;fillColor=#e51400;fontColor=#ffffff;strokeColor=#B20000;" vertex="1" parent="1">
          <mxGeometry x="543" y="920" width="180" height="20" as="geometry" />
        </mxCell>
        <mxCell id="4VON6w2d971kWTQR0FeI-76" value="" style="rounded=0;whiteSpace=wrap;html=1;" vertex="1" parent="1">
          <mxGeometry x="743" y="920" width="180" height="20" as="geometry" />
        </mxCell>
        <mxCell id="4VON6w2d971kWTQR0FeI-77" value="ALTO" style="rounded=0;whiteSpace=wrap;html=1;fillColor=#e51400;fontColor=#ffffff;strokeColor=#B20000;" vertex="1" parent="1">
          <mxGeometry x="943" y="920" width="220" height="20" as="geometry" />
        </mxCell>
        <mxCell id="4VON6w2d971kWTQR0FeI-78" value="" style="rounded=0;whiteSpace=wrap;html=1;fillColor=#60a917;fontColor=#ffffff;strokeColor=#2D7600;" vertex="1" parent="1">
          <mxGeometry x="133" y="950" width="180" height="20" as="geometry" />
        </mxCell>
        <mxCell id="4VON6w2d971kWTQR0FeI-79" value="" style="rounded=0;whiteSpace=wrap;html=1;" vertex="1" parent="1">
          <mxGeometry x="327" y="950" width="196" height="20" as="geometry" />
        </mxCell>
        <mxCell id="4VON6w2d971kWTQR0FeI-80" value="" style="rounded=0;whiteSpace=wrap;html=1;" vertex="1" parent="1">
          <mxGeometry x="543" y="950" width="180" height="20" as="geometry" />
        </mxCell>
        <mxCell id="4VON6w2d971kWTQR0FeI-81" value="SIM" style="rounded=0;whiteSpace=wrap;html=1;fillColor=#6a00ff;fontColor=#ffffff;strokeColor=#3700CC;" vertex="1" parent="1">
          <mxGeometry x="743" y="950" width="180" height="20" as="geometry" />
        </mxCell>
        <mxCell id="4VON6w2d971kWTQR0FeI-82" value="CRITICO" style="rounded=0;whiteSpace=wrap;html=1;fillColor=#6a00ff;fontColor=#ffffff;strokeColor=#3700CC;" vertex="1" parent="1">
          <mxGeometry x="943" y="950" width="220" height="20" as="geometry" />
        </mxCell>
        <mxCell id="4VON6w2d971kWTQR0FeI-83" value="SIM" style="rounded=0;whiteSpace=wrap;html=1;fillColor=#cdeb8b;strokeColor=#36393d;" vertex="1" parent="1">
          <mxGeometry x="133" y="980" width="180" height="20" as="geometry" />
        </mxCell>
        <mxCell id="4VON6w2d971kWTQR0FeI-84" value="" style="rounded=0;whiteSpace=wrap;html=1;" vertex="1" parent="1">
          <mxGeometry x="327" y="980" width="196" height="20" as="geometry" />
        </mxCell>
        <mxCell id="4VON6w2d971kWTQR0FeI-85" value="" style="rounded=0;whiteSpace=wrap;html=1;" vertex="1" parent="1">
          <mxGeometry x="543" y="980" width="180" height="20" as="geometry" />
        </mxCell>
        <mxCell id="4VON6w2d971kWTQR0FeI-86" value="" style="rounded=0;whiteSpace=wrap;html=1;" vertex="1" parent="1">
          <mxGeometry x="743" y="980" width="180" height="20" as="geometry" />
        </mxCell>
        <mxCell id="4VON6w2d971kWTQR0FeI-87" value="BAIXO" style="rounded=0;whiteSpace=wrap;html=1;fillColor=#cdeb8b;strokeColor=#36393d;" vertex="1" parent="1">
          <mxGeometry x="943" y="980" width="220" height="20" as="geometry" />
        </mxCell>
        <mxCell id="4VON6w2d971kWTQR0FeI-88" value="" style="rounded=0;whiteSpace=wrap;html=1;" vertex="1" parent="1">
          <mxGeometry x="133" y="920" width="180" height="20" as="geometry" />
        </mxCell>
        <mxCell id="4VON6w2d971kWTQR0FeI-89" value="3.2.4-Liquidação de sinistro PJ" style="rounded=0;whiteSpace=wrap;html=1;" vertex="1" parent="1">
          <mxGeometry x="-267" y="1010" width="380" height="20" as="geometry" />
        </mxCell>
        <mxCell id="4VON6w2d971kWTQR0FeI-90" value="3.2.5-Liquidação de sinistro no exterior (PF ou PJ ?)" style="rounded=0;whiteSpace=wrap;html=1;" vertex="1" parent="1">
          <mxGeometry x="-267" y="1040" width="380" height="20" as="geometry" />
        </mxCell>
        <mxCell id="4VON6w2d971kWTQR0FeI-91" value="" style="rounded=0;whiteSpace=wrap;html=1;" vertex="1" parent="1">
          <mxGeometry x="133" y="1010" width="180" height="20" as="geometry" />
        </mxCell>
        <mxCell id="4VON6w2d971kWTQR0FeI-92" value="" style="rounded=0;whiteSpace=wrap;html=1;" vertex="1" parent="1">
          <mxGeometry x="327" y="1010" width="196" height="20" as="geometry" />
        </mxCell>
        <mxCell id="4VON6w2d971kWTQR0FeI-93" value="" style="rounded=0;whiteSpace=wrap;html=1;" vertex="1" parent="1">
          <mxGeometry x="543" y="1010" width="180" height="20" as="geometry" />
        </mxCell>
        <mxCell id="4VON6w2d971kWTQR0FeI-94" value="" style="rounded=0;whiteSpace=wrap;html=1;" vertex="1" parent="1">
          <mxGeometry x="743" y="1010" width="180" height="20" as="geometry" />
        </mxCell>
        <mxCell id="4VON6w2d971kWTQR0FeI-95" value="" style="rounded=0;whiteSpace=wrap;html=1;" vertex="1" parent="1">
          <mxGeometry x="943" y="1010" width="220" height="20" as="geometry" />
        </mxCell>
        <mxCell id="4VON6w2d971kWTQR0FeI-96" value="" style="rounded=0;whiteSpace=wrap;html=1;" vertex="1" parent="1">
          <mxGeometry x="133" y="1040" width="180" height="20" as="geometry" />
        </mxCell>
        <mxCell id="4VON6w2d971kWTQR0FeI-97" value="SIM" style="rounded=0;whiteSpace=wrap;html=1;fillColor=#ffff88;strokeColor=#36393d;" vertex="1" parent="1">
          <mxGeometry x="327" y="1040" width="196" height="20" as="geometry" />
        </mxCell>
        <mxCell id="4VON6w2d971kWTQR0FeI-98" value="" style="rounded=0;whiteSpace=wrap;html=1;" vertex="1" parent="1">
          <mxGeometry x="543" y="1040" width="180" height="20" as="geometry" />
        </mxCell>
        <mxCell id="4VON6w2d971kWTQR0FeI-99" value="" style="rounded=0;whiteSpace=wrap;html=1;" vertex="1" parent="1">
          <mxGeometry x="743" y="1040" width="180" height="20" as="geometry" />
        </mxCell>
        <mxCell id="4VON6w2d971kWTQR0FeI-100" value="MEDIO" style="rounded=0;whiteSpace=wrap;html=1;fillColor=#ffff88;strokeColor=#36393d;" vertex="1" parent="1">
          <mxGeometry x="943" y="1040" width="220" height="20" as="geometry" />
        </mxCell>
        <mxCell id="4VON6w2d971kWTQR0FeI-101" value="valor &amp;lt;= 10K -&amp;gt; risco baixo" style="rounded=0;whiteSpace=wrap;html=1;fillColor=#cdeb8b;strokeColor=#36393d;" vertex="1" parent="1">
          <mxGeometry x="133" y="600" width="180" height="20" as="geometry" />
        </mxCell>
        <mxCell id="4VON6w2d971kWTQR0FeI-102" value="10k &amp;lt; valor &amp;lt;= 20K -&amp;gt; risco medio" style="rounded=0;whiteSpace=wrap;html=1;fillColor=#ffff88;strokeColor=#36393d;" vertex="1" parent="1">
          <mxGeometry x="323" y="600" width="200" height="20" as="geometry" />
        </mxCell>
        <mxCell id="4VON6w2d971kWTQR0FeI-103" value="valor &amp;lt;= 50K -&amp;gt; risco alto" style="rounded=0;whiteSpace=wrap;html=1;fillColor=#e51400;fontColor=#ffffff;strokeColor=#B20000;" vertex="1" parent="1">
          <mxGeometry x="543" y="600" width="180" height="20" as="geometry" />
        </mxCell>
        <mxCell id="4VON6w2d971kWTQR0FeI-104" value="50K -&amp;gt; risco critico" style="rounded=0;whiteSpace=wrap;html=1;fillColor=#6a00ff;fontColor=#ffffff;strokeColor=#3700CC;" vertex="1" parent="1">
          <mxGeometry x="743" y="600" width="180" height="20" as="geometry" />
        </mxCell>
        <mxCell id="4VON6w2d971kWTQR0FeI-105" value="2.2-Pos Contratação seguro Vida" style="rounded=0;whiteSpace=wrap;html=1;fillColor=#f5f5f5;strokeColor=#666666;gradientColor=#b3b3b3;" vertex="1" parent="1">
          <mxGeometry x="-267" y="600" width="380" height="20" as="geometry" />
        </mxCell>
        <mxCell id="4VON6w2d971kWTQR0FeI-106" value="Risco Final com base na Transação" style="rounded=0;whiteSpace=wrap;html=1;fillColor=#ffcd28;gradientColor=#ffa500;strokeColor=#d79b00;" vertex="1" parent="1">
          <mxGeometry x="943" y="600" width="220" height="20" as="geometry" />
        </mxCell>
        <mxCell id="ztYx9ieBcjDSenjXukC6-1" value="valor &amp;lt;= 10K -&amp;gt; risco baixo" style="rounded=0;whiteSpace=wrap;html=1;fillColor=#cdeb8b;strokeColor=#36393d;" vertex="1" parent="1">
          <mxGeometry x="133" y="890" width="180" height="20" as="geometry" />
        </mxCell>
        <mxCell id="ztYx9ieBcjDSenjXukC6-2" value="10k &amp;lt; valor &amp;lt;= 20K -&amp;gt; risco medio" style="rounded=0;whiteSpace=wrap;html=1;fillColor=#ffff88;strokeColor=#36393d;" vertex="1" parent="1">
          <mxGeometry x="323" y="890" width="200" height="20" as="geometry" />
        </mxCell>
        <mxCell id="ztYx9ieBcjDSenjXukC6-3" value="valor &amp;lt;= 50K -&amp;gt; risco alto" style="rounded=0;whiteSpace=wrap;html=1;fillColor=#e51400;fontColor=#ffffff;strokeColor=#B20000;" vertex="1" parent="1">
          <mxGeometry x="543" y="890" width="180" height="20" as="geometry" />
        </mxCell>
        <mxCell id="ztYx9ieBcjDSenjXukC6-4" value="50K -&amp;gt; risco critico" style="rounded=0;whiteSpace=wrap;html=1;fillColor=#6a00ff;fontColor=#ffffff;strokeColor=#3700CC;" vertex="1" parent="1">
          <mxGeometry x="743" y="890" width="180" height="20" as="geometry" />
        </mxCell>
        <mxCell id="ztYx9ieBcjDSenjXukC6-5" value="3.2-Pós Contratação seguro Prestamista" style="rounded=0;whiteSpace=wrap;html=1;fillColor=#dae8fc;strokeColor=#6c8ebf;gradientColor=#7ea6e0;" vertex="1" parent="1">
          <mxGeometry x="-267" y="890" width="380" height="20" as="geometry" />
        </mxCell>
        <mxCell id="ztYx9ieBcjDSenjXukC6-6" value="Risco Final com base na Transação" style="rounded=0;whiteSpace=wrap;html=1;fillColor=#ffcd28;gradientColor=#ffa500;strokeColor=#d79b00;" vertex="1" parent="1">
          <mxGeometry x="943" y="890" width="220" height="20" as="geometry" />
        </mxCell>
        <mxCell id="ztYx9ieBcjDSenjXukC6-7" value="1.5-Pós Contratação - Cancelameno Previdência" style="rounded=0;whiteSpace=wrap;html=1;fillColor=#f0a30a;fontColor=#000000;strokeColor=#BD7000;" vertex="1" parent="1">
          <mxGeometry x="-278.5" y="380" width="380" height="20" as="geometry" />
        </mxCell>
        <mxCell id="ztYx9ieBcjDSenjXukC6-8" value="valor &amp;lt;= 10K -&amp;gt; risco baixo" style="rounded=0;whiteSpace=wrap;html=1;fillColor=#cdeb8b;strokeColor=#36393d;" vertex="1" parent="1">
          <mxGeometry x="121.5" y="380" width="180" height="20" as="geometry" />
        </mxCell>
        <mxCell id="ztYx9ieBcjDSenjXukC6-9" value="10k &amp;lt; valor &amp;lt;= 20K -&amp;gt; risco medio" style="rounded=0;whiteSpace=wrap;html=1;fillColor=#ffff88;strokeColor=#36393d;" vertex="1" parent="1">
          <mxGeometry x="311.5" y="380" width="200" height="20" as="geometry" />
        </mxCell>
        <mxCell id="ztYx9ieBcjDSenjXukC6-10" value="valor &amp;lt;= 50K -&amp;gt; risco alto" style="rounded=0;whiteSpace=wrap;html=1;fillColor=#e51400;fontColor=#ffffff;strokeColor=#B20000;" vertex="1" parent="1">
          <mxGeometry x="531.5" y="380" width="180" height="20" as="geometry" />
        </mxCell>
        <mxCell id="ztYx9ieBcjDSenjXukC6-11" value="50K -&amp;gt; risco critico" style="rounded=0;whiteSpace=wrap;html=1;fillColor=#6a00ff;fontColor=#ffffff;strokeColor=#3700CC;" vertex="1" parent="1">
          <mxGeometry x="731.5" y="380" width="180" height="20" as="geometry" />
        </mxCell>
        <mxCell id="ztYx9ieBcjDSenjXukC6-12" value="Risco Final com base na Transação" style="rounded=0;whiteSpace=wrap;html=1;fillColor=#ffcd28;gradientColor=#ffa500;strokeColor=#d79b00;" vertex="1" parent="1">
          <mxGeometry x="931.5" y="380" width="220" height="20" as="geometry" />
        </mxCell>
        <mxCell id="ztYx9ieBcjDSenjXukC6-13" value="" style="endArrow=none;html=1;rounded=0;fillColor=#e6d0de;gradientColor=#d5739d;strokeColor=#996185;" edge="1" parent="1">
          <mxGeometry width="50" height="50" relative="1" as="geometry">
            <mxPoint x="-275.5" y="370" as="sourcePoint" />
            <mxPoint x="1154.5" y="370" as="targetPoint" />
          </mxGeometry>
        </mxCell>
        <mxCell id="ztYx9ieBcjDSenjXukC6-14" value="" style="endArrow=none;html=1;rounded=0;fillColor=#e6d0de;gradientColor=#d5739d;strokeColor=#996185;" edge="1" parent="1">
          <mxGeometry width="50" height="50" relative="1" as="geometry">
            <mxPoint x="-278.5" y="450" as="sourcePoint" />
            <mxPoint x="1151.5" y="450" as="targetPoint" />
          </mxGeometry>
        </mxCell>
        <mxCell id="ztYx9ieBcjDSenjXukC6-15" value="3.2.6-Liquidação de sinistro precoce (&amp;lt;30 dias da contratação) PFPJ?" style="rounded=0;whiteSpace=wrap;html=1;" vertex="1" parent="1">
          <mxGeometry x="-267" y="1070" width="380" height="20" as="geometry" />
        </mxCell>
        <mxCell id="ztYx9ieBcjDSenjXukC6-16" value="" style="rounded=0;whiteSpace=wrap;html=1;" vertex="1" parent="1">
          <mxGeometry x="133" y="1070" width="180" height="20" as="geometry" />
        </mxCell>
        <mxCell id="ztYx9ieBcjDSenjXukC6-17" value="SIM" style="rounded=0;whiteSpace=wrap;html=1;fillColor=#ffff88;strokeColor=#36393d;" vertex="1" parent="1">
          <mxGeometry x="327" y="1070" width="196" height="20" as="geometry" />
        </mxCell>
        <mxCell id="ztYx9ieBcjDSenjXukC6-18" value="" style="rounded=0;whiteSpace=wrap;html=1;" vertex="1" parent="1">
          <mxGeometry x="543" y="1070" width="180" height="20" as="geometry" />
        </mxCell>
        <mxCell id="ztYx9ieBcjDSenjXukC6-19" value="" style="rounded=0;whiteSpace=wrap;html=1;" vertex="1" parent="1">
          <mxGeometry x="743" y="1070" width="180" height="20" as="geometry" />
        </mxCell>
        <mxCell id="ztYx9ieBcjDSenjXukC6-20" value="MEDIO" style="rounded=0;whiteSpace=wrap;html=1;fillColor=#ffff88;strokeColor=#36393d;" vertex="1" parent="1">
          <mxGeometry x="943" y="1070" width="220" height="20" as="geometry" />
        </mxCell>
      </root>
    </mxGraphModel>
  </diagram>
</mxfile>
